<?xml version="1.0" encoding="UTF-8" standalone="no"?>
<!-- Created with Inkscape (http://www.inkscape.org/) -->

<svg
   id="svg5"
   version="1.1"
   viewBox="0 0 218.73775 218.73773"
   height="218.73775mm"
   width="218.73775mm"
   sodipodi:docname="dataasee.svg"
   inkscape:version="1.2.2 (b0a8486541, 2022-12-01)"
   xmlns:inkscape="http://www.inkscape.org/namespaces/inkscape"
   xmlns:sodipodi="http://sodipodi.sourceforge.net/DTD/sodipodi-0.dtd"
   xmlns="http://www.w3.org/2000/svg"
   xmlns:svg="http://www.w3.org/2000/svg">
  <sodipodi:namedview
     id="namedview7"
     pagecolor="#ffffff"
     bordercolor="#666666"
     borderopacity="1.0"
     inkscape:pageshadow="2"
     inkscape:pageopacity="0.0"
     inkscape:pagecheckerboard="0"
     inkscape:document-units="mm"
     showgrid="true"
     inkscape:zoom="0.49260384"
     inkscape:cx="332.92473"
     inkscape:cy="220.25813"
     inkscape:window-width="1854"
     inkscape:window-height="1131"
     inkscape:window-x="0"
     inkscape:window-y="0"
     inkscape:window-maximized="1"
     inkscape:current-layer="layer1"
     showguides="true"
     fit-margin-top="0"
     fit-margin-left="0"
     fit-margin-right="0"
     fit-margin-bottom="0"
     width="218.73775mm"
     inkscape:showpageshadow="2"
     inkscape:deskcolor="#d1d1d1">
    <inkscape:grid
       type="xygrid"
       id="grid2323"
       originx="-4.4019613"
       originy="-130.64139" />
  </sodipodi:namedview>
  <defs
     id="defs2" />
  <g
     inkscape:label="Ebene 1"
     inkscape:groupmode="layer"
     id="layer1"
     transform="translate(-4.4019613,-130.64141)">
    <path
       id="path4015-8"
       style="fill:#000000;stroke:#000000;stroke-width:10;stroke-linecap:butt;stroke-linejoin:miter;stroke-miterlimit:4;stroke-dasharray:none;stroke-opacity:1;fill-opacity:1"
       d="m 50.270834,224.436 c 0,0 10.583333,-10.58334 21.166666,0 10.583334,10.58333 21.166667,0 21.166667,0 m -84.6666671,0 c 0,0 10.5833331,-10.58334 21.1666661,0 10.583334,10.58333 21.166667,0 21.166667,0" />
    <path
       style="fill:#000000;stroke:#000000;stroke-width:10;stroke-linecap:butt;stroke-linejoin:miter;stroke-miterlimit:4;stroke-dasharray:none;stroke-opacity:1;fill-opacity:1"
       d="m 92.604167,192.38528 c 0,0 10.583333,-10.58333 21.166673,0 10.58333,10.58334 21.16666,0 21.16666,0"
       id="path4015-6" />
    <path
       id="path4015-9"
       style="fill:#000000;stroke:#000000;stroke-width:10;stroke-linecap:butt;stroke-linejoin:miter;stroke-miterlimit:4;stroke-dasharray:none;stroke-opacity:1;fill-opacity:1"
       d="m 177.27084,224.436 c 0,0 10.58333,-10.58334 21.16667,0 10.58333,10.58333 21.16666,0 21.16666,0 m -84.66667,0 c 0,0 10.58333,-10.58334 21.16667,0 10.58333,10.58333 21.16666,0 21.16666,0" />
    <path
       id="path4015-9-1"
       style="fill:#000000;stroke:#000000;stroke-width:10;stroke-linecap:butt;stroke-linejoin:miter;stroke-miterlimit:4;stroke-dasharray:none;stroke-opacity:1;fill-opacity:1"
       d="m 177.27084,255.88528 c 0,0 10.58333,-10.58334 21.16667,0 10.58333,10.58333 21.16666,0 21.16666,0 m -84.66667,0 c 0,0 10.58333,-10.58334 21.16667,0 10.58333,10.58333 21.16666,0 21.16666,0 m -84.66666,0 c 0,0 10.58333,-10.58334 21.16667,0 10.58333,10.58333 21.16666,0 21.16666,0 m -84.666666,0 c 0,0 10.583333,-10.58334 21.166666,0 10.583334,10.58333 21.166667,0 21.166667,0 m -84.6666672,0 c 0,0 10.5833332,-10.58334 21.1666662,0 10.583334,10.58333 21.166667,0 21.166667,0" />
    <path
       id="path4015-9-19"
       style="fill:#000000;stroke:#000000;stroke-width:10;stroke-linecap:butt;stroke-linejoin:miter;stroke-miterlimit:4;stroke-dasharray:none;stroke-opacity:1;fill-opacity:1"
       d="m 177.27084,287.63528 c 0,0 10.58333,-10.58334 21.16667,0 10.58333,10.58333 21.16666,0 21.16666,0 m -84.66667,0 c 0,0 10.58333,-10.58334 21.16667,0 10.58333,10.58333 21.16666,0 21.16666,0 m -84.666663,0 c 0,0 10.583333,-10.58334 21.166673,0 10.58333,10.58333 21.16666,0 21.16666,0 m -84.666669,0 c 0,0 10.583333,-10.58334 21.166666,0 10.583334,10.58333 21.166667,0 21.166667,0 m -84.6666678,0 c 0,0 10.5833338,-10.58334 21.1666668,0 10.583334,10.58333 21.166667,0 21.166667,0" />
  </g>
</svg>
