<?xml version="1.0" encoding="us-ascii" standalone="no"?><svg xmlns="http://www.w3.org/2000/svg" xmlns:xlink="http://www.w3.org/1999/xlink" contentStyleType="text/css" height="215px" preserveAspectRatio="none" style="width:244px;height:215px;background:#FFFFFF;" version="1.1" viewBox="0 0 244 215" width="244px" zoomAndPan="magnify"><defs/><g><!--entity endpoint--><g id="elem_endpoint"><ellipse cx="66.5" cy="14" fill="#F1F1F1" rx="8" ry="8" style="stroke:#181818;stroke-width:0.5;"/><text fill="#000000" font-family="sans-serif" font-size="14" lengthAdjust="spacing" textLength="62" x="35.5" y="43.9951">Endpoint</text></g><!--entity backend--><g id="elem_backend"><polygon fill="#F1F1F1" points="16,130,26,120,117,120,117,188.8906,107,198.8906,16,198.8906,16,130" style="stroke:#181818;stroke-width:0.5;"/><line style="stroke:#181818;stroke-width:0.5;" x1="107" x2="117" y1="130" y2="120"/><line style="stroke:#181818;stroke-width:0.5;" x1="16" x2="107" y1="130" y2="130"/><line style="stroke:#181818;stroke-width:0.5;" x1="107" x2="107" y1="130" y2="198.8906"/><text fill="#000000" font-family="sans-serif" font-size="14" lengthAdjust="spacing" textLength="4" x="31" y="152.9951">&#160;</text><text fill="#000000" font-family="sans-serif" font-size="14" lengthAdjust="spacing" textLength="61" x="31" y="169.292">Backend</text><text fill="#000000" font-family="sans-serif" font-size="14" lengthAdjust="spacing" textLength="4" x="31" y="185.5889">&#160;</text></g><!--link endpoint to backend--><g id="link_endpoint_backend"><path d="M66.5,30.71 C66.5,48.64 66.5,78.11 66.5,111.51 " fill="none" id="endpoint-backend" style="stroke:#181818;stroke-width:1.0;"/><polygon fill="#181818" points="66.5,22.71,63.5,30.71,69.5,30.71,66.5,22.71" style="stroke:#181818;stroke-width:1.0;"/><polygon fill="#181818" points="66.5,119.51,69.5,111.51,63.5,111.51,66.5,119.51" style="stroke:#181818;stroke-width:1.0;"/><text fill="#000000" font-family="sans-serif" font-size="13" lengthAdjust="spacing" textLength="87" x="71.5" y="86.0669">HTTP Server (</text><text fill="#000000" font-family="sans-serif" font-size="13" font-weight="bold" lengthAdjust="spacing" textLength="73" x="158.5" y="86.0669">api/v1/api</text><text fill="#000000" font-family="sans-serif" font-size="13" lengthAdjust="spacing" textLength="5" x="231.5" y="86.0669">)</text></g><!--link backend to backend--><g id="link_backend_backend"><path d="M117.41,144.86 C136.38,144.38 152,149.24 152,159.44 C152,169.64 144.3774,174.7124 125.4074,174.2324 " fill="none" id="backend-to-backend" style="stroke:#181818;stroke-width:1.0;"/><polygon fill="#181818" points="117.41,174.03,125.3316,177.2314,125.4833,171.2333,117.41,174.03" style="stroke:#181818;stroke-width:1.0;"/><text fill="#000000" font-family="sans-serif" font-size="13" lengthAdjust="spacing" textLength="56" x="162" y="164.0069">Load File</text></g><!--SRC=[oymhIIrAIqnELKZDIod8pymhKOZcSeKokMAvkFBoKr8LaXAJiu7oG2ak9mYJ2oG7rs9ZewjhPmTNPgMWfE0H4XAW49nQL9PQfA1XasINM92fNsQe3wHiz9FiD9MuO8enTFha9wOek6Ncf2e10000]--></g></svg>