<?xml version="1.0" encoding="us-ascii" standalone="no"?><svg xmlns="http://www.w3.org/2000/svg" xmlns:xlink="http://www.w3.org/1999/xlink" contentStyleType="text/css" height="196px" preserveAspectRatio="none" style="width:344px;height:196px;background:#FFFFFF;" version="1.1" viewBox="0 0 344 196" width="344px" zoomAndPan="magnify"><defs/><g><!--cluster ctr_be--><g id="cluster_ctr_be"><rect fill="none" height="183.59" rx="2.5" ry="2.5" style="stroke:#181818;stroke-width:1.0;" width="330" x="7" y="7"/><line style="stroke:#181818;stroke-width:1.0;" x1="7" x2="337" y1="27.2969" y2="27.2969"/><text fill="#000000" font-family="sans-serif" font-size="14" font-weight="bold" lengthAdjust="spacing" textLength="109" x="117.5" y="21.9951">CTR: Backend</text></g><!--entity be--><g id="elem_be"><rect fill="#F1F1F1" height="36.2969" rx="2.5" ry="2.5" style="stroke:#181818;stroke-width:0.5;" width="79" x="105.5" y="42"/><text fill="#000000" font-family="sans-serif" font-size="14" lengthAdjust="spacing" textLength="59" x="115.5" y="64.9951">Benthos</text></g><!--entity be0--><g id="elem_be0"><rect fill="#F1F1F1" height="22.2969" rx="2.5" ry="2.5" style="stroke:#181818;stroke-width:0.5;" width="41" x="22.5" y="145.29"/><text fill="#000000" font-family="sans-serif" font-size="14" lengthAdjust="spacing" textLength="21" x="32.5" y="161.2851">API</text></g><!--entity be1--><g id="elem_be1"><rect fill="#F1F1F1" height="32.2969" rx="2.5" ry="2.5" style="stroke:#181818;stroke-width:0.5;" width="89" x="102.5" y="142.29"/><rect fill="#F1F1F1" height="32.2969" rx="2.5" ry="2.5" style="stroke:#181818;stroke-width:0.5;" width="89" x="98.5" y="138.29"/><text fill="#000000" font-family="sans-serif" font-size="14" lengthAdjust="spacing" textLength="73" x="106.5" y="159.2851">Templates</text></g><!--entity be2--><g id="elem_be2"><rect fill="#F1F1F1" height="32.2969" rx="2.5" ry="2.5" style="stroke:#181818;stroke-width:0.5;" width="91" x="230.5" y="142.29"/><rect fill="#F1F1F1" height="32.2969" rx="2.5" ry="2.5" style="stroke:#181818;stroke-width:0.5;" width="91" x="226.5" y="138.29"/><text fill="#000000" font-family="sans-serif" font-size="14" lengthAdjust="spacing" textLength="75" x="234.5" y="159.2851">Resources</text></g><!--link be to be0--><g id="link_be_be0"><path d="M126.29,78.44 C105.24,97.9 77.5936,123.4586 60.1936,139.5486 " fill="none" id="be-to-be0" style="stroke:#181818;stroke-width:1.0;"/><polygon fill="#181818" points="54.32,144.98,62.2304,141.7512,58.1569,137.346,54.32,144.98" style="stroke:#181818;stroke-width:1.0;"/></g><!--link be to be1--><g id="link_be_be1"><path d="M145,78.44 C145,95.35 145,112.96 145,129.94 " fill="none" id="be-to-be1" style="stroke:#181818;stroke-width:1.0;"/><polygon fill="#181818" points="145,137.94,148,129.94,142,129.94,145,137.94" style="stroke:#181818;stroke-width:1.0;"/></g><!--link be to be2--><g id="link_be_be2"><path d="M168.96,78.66 C192.13,95.6 220.5818,116.3885 243.7118,133.2985 " fill="none" id="be-to-be2" style="stroke:#181818;stroke-width:1.0;"/><polygon fill="#181818" points="250.17,138.02,245.4824,130.8767,241.9413,135.7203,250.17,138.02" style="stroke:#181818;stroke-width:1.0;"/></g><!--SRC=[IquiIb58BYcAJqfLI2nMK78E2R9IS4fCpaxDIr5IgEPIK4XCJyqhKO1AEm7P6Vd5Ia3nP93Ef5G3iBXZW2TOB3yd9pMv93C_hnWePGYM2adDBSX9B4ajnbHW15OGb5gSNrgK359GoyK5j4XNryuEP38Isn29RGG0]--></g></svg>