<?xml version="1.0" encoding="us-ascii" standalone="no"?><svg xmlns="http://www.w3.org/2000/svg" xmlns:xlink="http://www.w3.org/1999/xlink" contentStyleType="text/css" height="191px" preserveAspectRatio="none" style="width:348px;height:191px;background:#FFFFFF;" version="1.1" viewBox="0 0 348 191" width="348px" zoomAndPan="magnify"><defs/><g><!--cluster ctr_db--><g id="cluster_ctr_db"><rect fill="none" height="178.59" rx="2.5" ry="2.5" style="stroke:#181818;stroke-width:1.0;" width="334" x="7" y="7"/><line style="stroke:#181818;stroke-width:1.0;" x1="7" x2="341" y1="27.2969" y2="27.2969"/><text fill="#000000" font-family="sans-serif" font-size="14" font-weight="bold" lengthAdjust="spacing" textLength="115" x="116.5" y="21.9951">CTR: Database</text></g><!--entity db--><g id="elem_db"><path d="M135.5,52 C135.5,42 180,42 180,42 C180,42 224.5,42 224.5,52 L224.5,77.2969 C224.5,87.2969 180,87.2969 180,87.2969 C180,87.2969 135.5,87.2969 135.5,77.2969 L135.5,52 " fill="#F1F1F1" style="stroke:#181818;stroke-width:0.5;"/><path d="M135.5,52 C135.5,62 180,62 180,62 C180,62 224.5,62 224.5,52 " fill="none" style="stroke:#181818;stroke-width:0.5;"/><text fill="#000000" font-family="sans-serif" font-size="14" lengthAdjust="spacing" textLength="69" x="145.5" y="78.9951">ArcadeDB</text></g><!--entity db0--><g id="elem_db0"><rect fill="#F1F1F1" height="22.2969" rx="2.5" ry="2.5" style="stroke:#181818;stroke-width:0.5;" width="83" x="23.5" y="147.29"/><text fill="#000000" font-family="sans-serif" font-size="14" lengthAdjust="spacing" textLength="63" x="33.5" y="163.2851">Init Script</text></g><!--entity db1--><g id="elem_db1"><rect fill="#F1F1F1" height="22.2969" rx="2.5" ry="2.5" style="stroke:#181818;stroke-width:1.0;stroke-dasharray:1.0,3.0;" width="76" x="142" y="147.29"/><text fill="#000000" font-family="sans-serif" font-size="14" lengthAdjust="spacing" textLength="56" x="152" y="163.2851">Schema</text></g><!--entity db2--><g id="elem_db2"><rect fill="#F1F1F1" height="22.2969" rx="2.5" ry="2.5" style="stroke:#181818;stroke-width:1.0;stroke-dasharray:1.0,3.0;" width="72" x="253" y="147.29"/><text fill="#000000" font-family="sans-serif" font-size="14" lengthAdjust="spacing" textLength="52" x="263" y="163.2851">Preload</text></g><!--reverse link db to db0--><g id="link_db_db0"><path d="M146.1984,92.6217 C122.6784,111.4017 96.13,132.59 78.12,146.97 " fill="none" id="db-backto-db0" style="stroke:#181818;stroke-width:1.0;"/><polygon fill="#181818" points="152.45,87.63,144.3265,90.2774,148.0703,94.9661,152.45,87.63" style="stroke:#181818;stroke-width:1.0;"/></g><!--link db to db1--><g id="link_db_db1"><path d="M180,87.4 C180,106.27 180,124.76 180,139.15 " fill="none" id="db-to-db1" style="stroke:#181818;stroke-width:1.0;stroke-dasharray:1.0,3.0;"/><polygon fill="#181818" points="180,147.15,183,139.15,177,139.15,180,147.15" style="stroke:#181818;stroke-width:1.0;"/></g><!--link db to db2--><g id="link_db_db2"><path d="M206.11,87.63 C228.4,106.41 253.3716,127.4358 270.4416,141.8158 " fill="none" id="db-to-db2" style="stroke:#181818;stroke-width:1.0;stroke-dasharray:1.0,3.0;"/><polygon fill="#181818" points="276.56,146.97,272.3745,139.5214,268.5088,144.1102,276.56,146.97" style="stroke:#181818;stroke-width:1.0;"/></g><!--SRC=[ROsn2i90343tVaKuvnFjgAMWxU8crar4Sad0WzhADPlux_REWY9kITuBZp0ma8OBEy01J7KyhA16HOU367Xa03njC2cRGCXIRyt8ABwpMoImwxn2Gy7VzOij4sleAZSqC6jz9tFkLONN7obFqZv8soF_Miyi6zD5OMrCnTcUtkniop8c_jpo5m00]--></g></svg>