<svg xmlns="http://www.w3.org/2000/svg" xmlns:xlink="http://www.w3.org/1999/xlink" contentStyleType="text/css" data-diagram-type="CLASS" height="378px" preserveAspectRatio="none" style="width:254px;height:378px;background:#FFFFFF;" version="1.1" viewBox="0 0 254 378" width="254px" zoomAndPan="magnify"><?plantuml 1.2026.3beta6?><defs/><g><!--entity endpoint--><g class="entity" data-qualified-name="endpoint" data-source-line="1" id="ent0002"><ellipse cx="66.18" cy="14" fill="#F1F1F1" rx="8" ry="8" style="stroke:#181818;stroke-width:0.5;"/><text fill="#000000" font-family="sans-serif" font-size="14" lengthAdjust="spacing" textLength="62.3096" x="35.0252" y="43.9951">Endpoint</text></g><!--entity backend--><g class="entity" data-qualified-name="backend" data-source-line="5" id="ent0003"><polygon fill="#F1F1F1" points="16,130,26,120,116.3613,120,116.3613,188.8906,106.3613,198.8906,16,198.8906,16,130" style="stroke:#181818;stroke-width:0.5;"/><line style="stroke:#181818;stroke-width:0.5;" x1="106.3613" x2="116.3613" y1="130" y2="120"/><line style="stroke:#181818;stroke-width:0.5;" x1="16" x2="106.3613" y1="130" y2="130"/><line style="stroke:#181818;stroke-width:0.5;" x1="106.3613" x2="106.3613" y1="130" y2="198.8906"/><text fill="#000000" font-family="sans-serif" font-size="14" lengthAdjust="spacing" textLength="4.4502" x="31" y="152.9951"> </text><text fill="#000000" font-family="sans-serif" font-size="14" lengthAdjust="spacing" textLength="60.3613" x="31" y="169.292">Backend</text><text fill="#000000" font-family="sans-serif" font-size="14" lengthAdjust="spacing" textLength="4.4502" x="31" y="185.5889"> </text></g><!--entity database--><g class="entity" data-qualified-name="database" data-source-line="11" id="ent0004"><path d="M22.78,285.89 C22.78,275.89 66.1804,275.89 66.1804,275.89 C66.1804,275.89 109.5808,275.89 109.5808,285.89 L109.5808,343.7806 C109.5808,353.7806 66.1804,353.7806 66.1804,353.7806 C66.1804,353.7806 22.78,353.7806 22.78,343.7806 L22.78,285.89" fill="#F1F1F1" style="stroke:#181818;stroke-width:0.5;"/><path d="M22.78,285.89 C22.78,295.89 66.1804,295.89 66.1804,295.89 C66.1804,295.89 109.5808,295.89 109.5808,285.89" fill="none" style="stroke:#181818;stroke-width:0.5;"/><text fill="#000000" font-family="sans-serif" font-size="14" lengthAdjust="spacing" textLength="4.4502" x="32.78" y="312.8851"> </text><text fill="#000000" font-family="sans-serif" font-size="14" lengthAdjust="spacing" textLength="66.8008" x="32.78" y="329.182">Database</text><text fill="#000000" font-family="sans-serif" font-size="14" lengthAdjust="spacing" textLength="4.4502" x="32.78" y="345.4789"> </text></g><!--link endpoint to backend--><g class="link" data-entity-1="ent0002" data-entity-2="ent0003" data-link-type="dependency" data-source-line="17" id="lnk5"><path codeLine="17" d="M66.18,30.71 C66.18,48.63 66.18,78.11 66.18,111.51" fill="none" id="endpoint-backend" style="stroke:#181818;stroke-width:1;"/><polygon fill="#181818" points="66.18,22.71,63.18,30.71,69.18,30.71,66.18,22.71" style="stroke:#181818;stroke-width:1;"/><polygon fill="#181818" points="66.18,119.51,69.18,111.51,63.18,111.51,66.18,119.51" style="stroke:#181818;stroke-width:1;"/><text fill="#000000" font-family="sans-serif" font-size="13" lengthAdjust="spacing" textLength="89.4639" x="71.3123" y="86.0669">HTTP Server (</text><text fill="#000000" font-family="sans-serif" font-size="13" font-weight="700" lengthAdjust="spacing" textLength="72.4458" x="160.7762" y="86.0669">/database</text><text fill="#000000" font-family="sans-serif" font-size="13" lengthAdjust="spacing" textLength="5.0718" x="233.222" y="86.0669">)</text></g><!--link backend to database--><g class="link" data-entity-1="ent0003" data-entity-2="ent0004" data-link-type="dependency" data-source-line="18" id="lnk6"><path codeLine="18" d="M66.18,199.15 C66.18,222.49 66.18,244.11 66.18,267.41" fill="none" id="backend-to-database" style="stroke:#181818;stroke-width:1;"/><polygon fill="#181818" points="66.18,275.41,69.18,267.41,63.18,267.41,66.18,275.41" style="stroke:#181818;stroke-width:1;"/><text fill="#000000" font-family="sans-serif" font-size="13" lengthAdjust="spacing" textLength="84.4683" x="71.3123" y="241.9569">HTTP Client (</text><text fill="#000000" font-family="sans-serif" font-size="13" font-weight="700" lengthAdjust="spacing" textLength="47.0107" x="155.7806" y="241.9569">/query</text><text fill="#000000" font-family="sans-serif" font-size="13" lengthAdjust="spacing" textLength="5.0718" x="202.7913" y="241.9569">)</text></g><?plantuml-src oymhIIrAIqnELKZDIod8pymhKOZcSeKokMAvkFBoKr8LaXAJiu7oG2ak9mYJ2oINabYIc9HOdAe0Pm0Lk43PO1LmGsriT7NjxE06MIaeANY4X0Ge1ASMbQKMAMZO9DdfmqonqK-oqrJYWga5QuJR0DVfd9EP2ZGOhBEmDBMe4g8D0000?></g></svg>