<?xml version="1.0" encoding="UTF-8" standalone="no"?>
<!-- Created with Inkscape (http://www.inkscape.org/) -->

<svg
   width="17.610704in"
   height="8.8084249in"
   viewBox="0 0 447.3119 223.73399"
   version="1.1"
   id="svg5"
   inkscape:version="1.1.2 (0a00cf5339, 2022-02-04)"
   sodipodi:docname="info.svg"
   inkscape:export-filename="/home/c_himp01/dataasee-gfx/ani/info-3.png"
   inkscape:export-xdpi="72.657715"
   inkscape:export-ydpi="72.657715"
   xmlns:inkscape="http://www.inkscape.org/namespaces/inkscape"
   xmlns:sodipodi="http://sodipodi.sourceforge.net/DTD/sodipodi-0.dtd"
   xmlns="http://www.w3.org/2000/svg"
   xmlns:svg="http://www.w3.org/2000/svg">
  <sodipodi:namedview
     id="namedview7"
     pagecolor="#ffffff"
     bordercolor="#666666"
     borderopacity="1.0"
     inkscape:pageshadow="2"
     inkscape:pageopacity="0"
     inkscape:pagecheckerboard="true"
     inkscape:document-units="mm"
     showgrid="true"
     units="mm"
     showguides="false"
     inkscape:zoom="0.90583672"
     inkscape:cx="784.90967"
     inkscape:cy="400.18249"
     inkscape:window-width="1850"
     inkscape:window-height="1136"
     inkscape:window-x="70"
     inkscape:window-y="27"
     inkscape:window-maximized="1"
     inkscape:current-layer="layer1"
     fit-margin-top="0"
     fit-margin-left="5"
     fit-margin-right="5.2"
     fit-margin-bottom="0">
    <inkscape:grid
       type="xygrid"
       id="grid13452"
       spacingx="0.52916667"
       spacingy="0.52916667"
       empspacing="8"
       originx="221.11598"
       originy="105.99897" />
  </sodipodi:namedview>
  <defs
     id="defs2">
    <marker
       style="overflow:visible"
       id="TriangleOutS"
       refX="0"
       refY="0"
       orient="auto"
       inkscape:stockid="TriangleOutS"
       inkscape:isstock="true">
      <path
         transform="scale(0.2)"
         style="fill:context-stroke;fill-rule:evenodd;stroke:context-stroke;stroke-width:1pt"
         d="M 5.77,0 -2.88,5 V -5 Z"
         id="path32707" />
    </marker>
    <marker
       style="overflow:visible"
       id="Arrow1Send"
       refX="0"
       refY="0"
       orient="auto"
       inkscape:stockid="Arrow1Send"
       inkscape:isstock="true">
      <path
         transform="matrix(-0.2,0,0,-0.2,-1.2,0)"
         style="fill:context-stroke;fill-rule:evenodd;stroke:context-stroke;stroke-width:1pt"
         d="M 0,0 5,-5 -12.5,0 5,5 Z"
         id="path32574" />
    </marker>
    <marker
       style="overflow:visible"
       id="TriangleOutL"
       refX="0"
       refY="0"
       orient="auto"
       inkscape:stockid="TriangleOutL"
       inkscape:isstock="true">
      <path
         transform="scale(0.8)"
         style="fill:context-stroke;fill-rule:evenodd;stroke:context-stroke;stroke-width:1pt"
         d="M 5.77,0 -2.88,5 V -5 Z"
         id="path32701" />
    </marker>
    <marker
       style="overflow:visible"
       id="Arrow1Lstart"
       refX="0"
       refY="0"
       orient="auto"
       inkscape:stockid="Arrow1Lstart"
       inkscape:isstock="true">
      <path
         transform="matrix(0.8,0,0,0.8,10,0)"
         style="fill:context-stroke;fill-rule:evenodd;stroke:context-stroke;stroke-width:1pt"
         d="M 0,0 5,-5 -12.5,0 5,5 Z"
         id="path32559" />
    </marker>
    <style
       id="style1205">.cls-1{fill-rule:evenodd;}</style>
    <style
       id="style1254">.cls-1{fill-rule:evenodd;}</style>
  </defs>
  <g
     inkscape:label="Ebene 1"
     inkscape:groupmode="layer"
     id="layer1"
     transform="translate(113.16595,-33.700943)">
    <g
       id="g23311"
       style="stroke:#0045ff;stroke-opacity:1"
       transform="matrix(0.79721008,0,0,1,21.891168,0)">
      <text
         xml:space="preserve"
         style="font-style:normal;font-variant:normal;font-weight:bold;font-stretch:normal;font-size:11.2889px;line-height:1.25;font-family:sans-serif;-inkscape-font-specification:'sans-serif, Bold';font-variant-ligatures:normal;font-variant-caps:normal;font-variant-numeric:normal;font-variant-east-asian:normal;fill:#0000ff;fill-opacity:1;stroke:#0045ff;stroke-width:0.264583;stroke-opacity:1"
         x="77.318939"
         y="265.17041"
         id="text6913"><tspan
           sodipodi:role="line"
           id="tspan6911"
           style="font-style:normal;font-variant:normal;font-weight:bold;font-stretch:normal;font-size:11.2889px;font-family:sans-serif;-inkscape-font-specification:'sans-serif, Bold';font-variant-ligatures:normal;font-variant-caps:normal;font-variant-numeric:normal;font-variant-east-asian:normal;fill:#0000ff;fill-opacity:1;stroke:#0045ff;stroke-width:0.264583;stroke-opacity:1"
           x="77.318939"
           y="265.17041" /></text>
    </g>
    <path
       d="m 103.83105,111.7004 c 2.06905,0.69056 4.94771,1.12977 8.13859,1.12977 3.19087,0 6.08541,-0.42598 8.14387,-1.11654 1.81504,-0.6059 2.93688,-1.3388 2.93688,-2.05846 0,-0.71967 -1.12184,-1.44992 -2.93688,-2.05582 -2.05846,-0.70379 -4.93977,-1.11918 -8.14387,-1.11918 -3.20411,0 -6.08541,0.42598 -8.14653,1.11654 -3.84175,1.26471 -3.94758,2.78342 0.008,4.10369 z m -5.09058,21.78842 c 0.635,0.13759 1.29116,0.33602 2.01612,0.55298 0.60061,0.17992 1.24883,0.37571 1.85208,0.52917 0.60325,0.15346 1.4711,-0.15346 2.3601,-0.4789 1.03187,-0.381 2.11666,-0.77523 3.3602,-0.74348 0.9234,0.0238 1.72508,0.46038 2.54,0.90488 0.56356,0.30692 1.13506,0.61912 1.50283,0.63235 0.43392,0.0159 0.98161,-0.30691 1.52665,-0.6297 0.79375,-0.46832 1.5875,-0.93928 2.667,-0.97632 1.16946,-0.0397 2.09285,0.37307 3.01096,0.79375 a 5.3631042,5.3631042 0 0 0 1.63512,0.52917 c 0.52917,0.0423 1.13771,-0.3519 1.73302,-0.73025 0.73819,-0.4736 1.4605,-0.93398 2.38125,-1.03717 l 0.26459,2.50296 c -0.35455,0.0397 -0.82815,0.34131 -1.32292,0.65088 -0.94721,0.60589 -1.92352,1.23031 -3.27025,1.12712 -0.92604,-0.0714 -1.69598,-0.41539 -2.47121,-0.75935 -0.65352,-0.29104 -1.32292,-0.58473 -1.91029,-0.56357 -0.41804,0 -0.94192,0.3228 -1.46315,0.62971 -0.85989,0.508 -1.71979,1.016 -2.89454,0.97367 -0.96043,-0.0344 -1.79387,-0.48948 -2.61673,-0.93663 -0.54768,-0.29897 -1.08479,-0.59266 -1.397,-0.6006 -0.76728,-0.0185 -1.6166,0.29369 -2.43416,0.59531 -1.26471,0.46567 -2.47122,0.91017 -3.85763,0.54769 -0.79375,-0.20373 -1.38642,-0.38365 -1.94469,-0.55298 -0.67204,-0.20108 -1.27794,-0.38364 -1.82827,-0.50271 l 0.52917,-2.46327 z m 0.5027,-6.08541 c 0.5715,0.14552 1.02394,0.2831 1.51342,0.42862 0.59796,0.17992 1.24883,0.37571 1.85208,0.52917 0.60325,0.15346 1.4711,-0.15081 2.3601,-0.4789 1.03187,-0.381 2.11666,-0.77523 3.3602,-0.74348 0.9234,0.0238 1.72508,0.46038 2.54,0.90488 0.56356,0.30692 1.13506,0.61912 1.50283,0.63235 0.43392,0.0159 0.98161,-0.30691 1.52665,-0.62971 0.79375,-0.46831 1.5875,-0.93927 2.667,-0.97631 1.16946,-0.037 2.09285,0.37306 3.01096,0.79375 a 5.4239583,5.4239583 0 0 0 1.63512,0.52917 c 0.52917,0.0423 1.13771,-0.3519 1.73302,-0.73025 0.73819,-0.47361 1.4605,-0.93398 2.38125,-1.03717 l 0.26459,2.50296 c -0.35455,0.0397 -0.82815,0.34131 -1.32292,0.65088 -0.92075,0.61912 -1.89177,1.24354 -3.2385,1.14035 -0.92604,-0.0714 -1.69598,-0.4154 -2.47121,-0.75935 -0.65352,-0.29105 -1.32292,-0.58473 -1.91029,-0.56357 -0.41804,0 -0.94192,0.32279 -1.46315,0.62971 -0.85989,0.508 -1.71979,1.016 -2.89454,0.97367 -0.96043,-0.0344 -1.79387,-0.48948 -2.61673,-0.93663 -0.54768,-0.29633 -1.08479,-0.59266 -1.397,-0.6006 -0.76728,-0.0185 -1.6166,0.29369 -2.43416,0.59531 -1.26471,0.46567 -2.47122,0.91017 -3.85763,0.54769 -0.79375,-0.20108 -1.38642,-0.38365 -1.94469,-0.55298 -0.55827,-0.16933 -1.05833,-0.32015 -1.41288,-0.40746 l 0.61913,-2.43417 z m 0.0741,-17.74824 c 0,-1.46844 1.53459,-2.71727 4.01638,-3.54542 2.2278,-0.75671 5.28373,-1.21708 8.636,-1.21708 3.35227,0 6.42144,0.46037 8.64923,1.20385 2.2278,0.74348 3.73328,1.85208 3.96875,3.15648 a 0.79375,0.79375 0 0 1 0.045,0.26458 v 15.00981 a 6.2282917,6.2282917 0 0 0 -1.524,0.52916 l -0.0503,0.0265 v -4.41588 a 9.9245208,9.9245208 0 0 1 -2.43945,1.15886 c -2.2278,0.74348 -5.29167,1.20386 -8.6413,1.20386 -3.34962,0 -6.41613,-0.46038 -8.64393,-1.20386 a 10.144125,10.144125 0 0 1 -2.42358,-1.14034 v 4.71751 a 0.9921875,0.9921875 0 0 0 0.0767,0.21431 c -0.26458,-0.0794 -0.57679,-0.16669 -1.008067,-0.26458 -0.0608,-0.0212 -0.12436,-0.0423 -0.1905,-0.0582 a 2.1166667,2.1166667 0 0 0 -0.45772,-0.0662 c 0,-5.43983 -0.0132,-11.22097 -0.0132,-15.57337 z m 1.58751,8.78681 c 0.14287,0.6694 1.23295,1.34408 2.91041,1.90765 2.08493,0.68262 4.96359,1.10331 8.15446,1.10331 3.19088,0 6.08542,-0.42069 8.15182,-1.11654 1.81504,-0.6059 2.93687,-1.34144 2.93687,-2.05846 v 0 -6.24152 a 9.9245208,9.9245208 0 0 1 -2.45004,1.15887 c -2.22779,0.74348 -5.29167,1.20386 -8.64129,1.20386 -3.34962,0 -6.41614,-0.46038 -8.64394,-1.20386 a 9.9430417,9.9430417 0 0 1 -2.42358,-1.14035 v 6.37381 z"
       id="path876"
       style="fill:#ff4500;fill-opacity:1;stroke-width:0.264583" />
    <path
       class="st0"
       d="m 97.83031,162.01214 h 28.10933 c 1.21179,0 2.20133,0.98954 2.20133,2.20134 v 19.7432 c 0,1.20915 -0.98954,2.20134 -2.20133,2.20134 H 97.83031 c -1.21179,0 -2.20134,-0.99219 -2.20134,-2.20134 v -19.7432 c 0,-1.2118 0.989548,-2.20134 2.20134,-2.20134 z m 9.36096,17.12913 h -2.88396 l -0.4154,1.35996 h -2.60085 l 3.10356,-8.24441 h 2.78871 l 3.09033,8.24441 h -2.66964 z m -0.53711,-1.78329 -0.89958,-2.96333 -0.90488,2.96333 z m 4.62492,-5.10116 h 4.23862 c 0.9234,0 1.61396,0.2196 2.07434,0.6588 0.45773,0.43921 0.68791,1.06627 0.68791,1.8759 0,0.83343 -0.25135,1.48431 -0.75141,1.95262 -0.50007,0.47096 -1.26736,0.70379 -2.29659,0.70379 h -1.397 v 3.05065 h -2.55587 z m 2.55587,3.5216 h 0.62707 c 0.49477,0 0.84137,-0.0873 1.04245,-0.25664 0.19844,-0.17198 0.29898,-0.38894 0.29898,-0.65618 0,-0.25928 -0.0873,-0.4789 -0.26193,-0.6588 -0.17198,-0.17992 -0.50007,-0.26988 -0.97896,-0.26988 h -0.73025 v 1.8415 z m 6.08807,-3.5216 h 2.55587 v 8.24441 h -2.55587 z m 6.91885,-4.08252 H 97.028619 v 15.99671 c 0,0.16933 0.0661,0.3175 0.17727,0.43127 0.11113,0.11112 0.261939,0.17727 0.43127,0.17727 h 28.585591 c 0.16933,0 0.3175,-0.0661 0.43127,-0.17727 0.11377,-0.11377 0.17727,-0.26194 0.17727,-0.43127 V 168.1743 Z m -2.99773,-3.68829 c 0.60061,0 1.08744,0.48683 1.08744,1.08743 0,0.60061 -0.48683,1.08744 -1.08744,1.08744 -0.6006,0 -1.08744,-0.48683 -1.08744,-1.08744 0.003,-0.6006 0.48948,-1.08743 1.08744,-1.08743 z m -7.366,0 c 0.60061,0 1.08744,0.48683 1.08744,1.08743 0,0.60061 -0.48683,1.08744 -1.08744,1.08744 -0.6006,0 -1.08744,-0.48683 -1.08744,-1.08744 0,-0.6006 0.48684,-1.08743 1.08744,-1.08743 z m 3.683,0 c 0.60061,0 1.08744,0.48683 1.08744,1.08743 0,0.60061 -0.48683,1.08744 -1.08744,1.08744 -0.6006,0 -1.08744,-0.48683 -1.08744,-1.08744 0,-0.6006 0.48684,-1.08743 1.08744,-1.08743 z"
       id="path1021"
       style="fill:#ff4500;fill-opacity:1;stroke:none;stroke-width:0.265;stroke-miterlimit:4;stroke-dasharray:none;stroke-opacity:1" />
    <path
       class="st0"
       d="m 22.321987,210.5698 h 28.109335 c 1.21179,0 2.20133,0.98955 2.20133,2.20134 v 19.74321 c 0,1.20914 -0.98954,2.20133 -2.20133,2.20133 H 22.321987 c -1.211792,0 -2.201333,-0.99219 -2.201333,-2.20133 v -19.74321 c 0,-1.21179 0.989541,-2.20134 2.201333,-2.20134 z m 12.207875,19.10822 -5.942542,-3.60097 v -2.28336 l 5.942542,-3.60099 v 2.71463 l -3.611562,2.03464 3.611562,2.03729 z m 3.693587,0 5.942543,-3.60097 v -2.28336 l -5.942543,-3.60099 v 2.71463 l 3.611563,2.03464 -3.611563,2.03729 z M 51.333552,216.73194 H 21.520299 v 15.99671 c 0,0.16934 0.06615,0.3175 0.177271,0.43128 0.111125,0.11113 0.261938,0.17727 0.431271,0.17727 h 28.585591 c 0.16933,0 0.3175,-0.0661 0.43127,-0.17727 0.11377,-0.11377 0.17727,-0.26194 0.17727,-0.43128 v -15.99671 z m -2.99773,-3.68829 c 0.60061,0 1.08744,0.48683 1.08744,1.08744 0,0.6006 -0.48683,1.08744 -1.08744,1.08744 -0.6006,0 -1.08744,-0.48684 -1.08744,-1.08744 0.003,-0.60061 0.48948,-1.08744 1.08744,-1.08744 z m -7.366,0 c 0.60061,0 1.08744,0.48683 1.08744,1.08744 0,0.6006 -0.48683,1.08744 -1.08744,1.08744 -0.6006,0 -1.08744,-0.48684 -1.08744,-1.08744 0,-0.60061 0.48684,-1.08744 1.08744,-1.08744 z m 3.683,0 c 0.60061,0 1.08744,0.48683 1.08744,1.08744 0,0.6006 -0.48683,1.08744 -1.08744,1.08744 -0.6006,0 -1.08744,-0.48684 -1.08744,-1.08744 0,-0.60061 0.48684,-1.08744 1.08744,-1.08744 z"
       id="path1121"
       style="fill:#ff4500;fill-opacity:1;stroke-width:0.264583" />
    <path
       d="m 192.3447,220.09503 c -0.19844,0.0979 -0.39952,0.20638 -0.59796,0.32015 -0.59531,0.34925 -1.18269,0.77523 -1.78329,1.26471 l -1.28058,-1.4658 c 0.44185,-0.4101 0.92075,-0.78316 1.42875,-1.11389 0.40481,-0.26459 0.82814,-0.50006 1.26471,-0.70115 0.17462,-0.0873 0.34925,-0.16933 0.52916,-0.24606 -0.84402,-1.4949 -2.05846,-2.56646 -3.43429,-3.22792 -1.37583,-0.65881 -2.91571,-0.91281 -4.4159,-0.76729 -1.4896,0.14288 -2.93687,0.68527 -4.13279,1.61396 -1.38377,1.07156 -2.43416,2.67494 -2.83898,4.79954 l -0.127,0.66411 -0.66145,0.11641 c -0.64823,0.11377 -1.22767,0.26988 -1.73567,0.46831 -0.49213,0.1905 -0.93133,0.42598 -1.31498,0.7038 -0.30692,0.22225 -0.5715,0.47095 -0.7964,0.74083 -0.69585,0.83344 -1.01864,1.87854 -1.0107,2.93687 0.008,1.07421 0.35718,2.159 1.00277,3.05065 0.24077,0.33073 0.51858,0.635 0.83608,0.89958 0.32279,0.26723 0.68527,0.48948 1.09273,0.65617 0.40481,0.16669 0.85196,0.28575 1.34673,0.35454 h 19.19552 c 0.93398,-0.22489 1.75948,-0.52916 2.46062,-0.92075 0.69586,-0.38894 1.26471,-0.86254 1.69069,-1.43139 0.66146,-0.88107 0.9869,-2.12725 1.00013,-3.40519 0.0159,-1.34144 -0.31221,-2.68817 -0.94986,-3.66713 -0.18256,-0.2831 -0.38364,-0.5371 -0.59531,-0.76464 -0.95515,-1.02923 -2.16694,-1.47902 -3.42635,-1.48696 -0.90753,-0.008 -1.85209,0.21167 -2.74638,0.60854 z m 1.49225,-2.45533 c 0.42333,-0.0661 0.84667,-0.10054 1.26735,-0.0953 1.778,0.0132 3.4925,0.64823 4.84188,2.10344 0.2831,0.30427 0.55033,0.64822 0.80169,1.03187 0.84666,1.30175 1.28058,3.04006 1.26206,4.74133 -0.0185,1.66952 -0.46831,3.33111 -1.38906,4.55348 -0.60061,0.7964 -1.37054,1.44727 -2.29394,1.96321 -0.889,0.49742 -1.92617,0.87577 -3.09033,1.14565 l -0.21696,0.0265 h -19.33575 l -0.12171,-0.0106 c -0.70644,-0.09 -1.34673,-0.25664 -1.92881,-0.49741 -0.60061,-0.24871 -1.13242,-0.56886 -1.60073,-0.96044 -0.4445,-0.37042 -0.83344,-0.79111 -1.16417,-1.24884 -0.88371,-1.21708 -1.35996,-2.70404 -1.37054,-4.1857 -0.0106,-1.49755 0.45508,-2.98715 1.4605,-4.19365 0.32544,-0.39158 0.70908,-0.75142 1.14829,-1.06892 0.51065,-0.37041 1.09538,-0.68262 1.75683,-0.93927 0.45509,-0.17727 0.94192,-0.32543 1.45521,-0.4445 0.58209,-2.31246 1.82298,-4.0931 3.41842,-5.32871 1.49225,-1.15622 3.28877,-1.83091 5.13821,-2.00818 1.8415,-0.17727 3.73591,0.13493 5.43719,0.9525 1.85472,0.89164 3.47397,2.37596 4.52437,4.46352 z"
       id="path1158"
       style="fill:#ff4500;fill-opacity:1;stroke-width:0.264583"
       inkscape:export-filename="/home/c_himp01/dataasee-gfx/info.png"
       inkscape:export-xdpi="96"
       inkscape:export-ydpi="96" />
    <g
       id="g23301"
       transform="translate(-3.8994838,9.915364)"
       style="fill:#ff4500;fill-opacity:1">
      <path
         class="cls-1"
         d="m 26.44776,55.282039 -1.16946,1.169459 a 0.79375,0.79375 0 0 0 0,1.119186 l 0.94192,0.941918 a 6.2917917,6.2917917 0 0 0 -0.58473,1.547813 h -1.21973 a 0.79375,0.79375 0 0 0 -0.79375,0.79375 v 1.653645 a 0.79375,0.79375 0 0 0 0.79375,0.79375 h 1.32292 a 6.2521042,6.2521042 0 0 0 0.68792,1.513417 l -0.86255,0.862542 a 0.79375,0.79375 0 0 0 0,1.121833 l 1.16946,1.169458 a 0.79375,0.79375 0 0 0 1.11919,0 l 0.94192,-0.941917 a 6.35,6.35 0 0 0 1.56104,0.584729 v 1.219729 a 0.79375,0.79375 0 0 0 0.79375,0.79375 h 1.66158 a 0.79375,0.79375 0 0 0 0.79375,-0.79375 v -1.322917 a 6.35,6.35 0 0 0 1.51342,-0.690562 l 0.86519,0.862542 a 0.79375,0.79375 0 0 0 1.11918,0 l 1.16946,-1.169459 a 0.79375,0.79375 0 0 0 0,-1.119187 l -0.94192,-0.941917 a 6.2282917,6.2282917 0 0 0 0.584733,-1.558396 h 1.219729 a 0.79375,0.79375 0 0 0 0.79375,-0.79375 v -1.653646 a 0.79375,0.79375 0 0 0 -0.79375,-0.79375 H 37.811615 A 6.2785625,6.2785625 0 0 0 37.12105,58.134247 l 0.86519,-0.862542 a 0.79375,0.79375 0 0 0 0,-1.119187 l -1.16946,-1.169459 a 0.79375,0.79375 0 0 0 -1.11918,0 l -0.94457,0.941917 a 6.3050208,6.3050208 0 0 0 -1.55839,-0.584729 v -1.217083 a 0.79375,0.79375 0 0 0 -0.79375,-0.79375 h -1.66423 a 0.79375,0.79375 0 0 0 -0.79375,0.79375 v 1.322916 a 6.2309375,6.2309375 0 0 0 -1.51606,0.690563 l -0.86519,-0.854604 a 0.79375,0.79375 0 0 0 -1.12184,0 z m 24.926397,-10.78177 c -2.185458,0.73025 -5.228166,1.180042 -8.606896,1.180042 -3.378729,0 -6.429371,-0.436564 -8.614831,-1.180042 -1.91823,-0.640292 -3.10356,-1.415521 -3.10356,-2.174875 0,-0.759354 1.18533,-1.531938 3.10356,-2.172229 2.18546,-0.73025 5.228165,-1.182689 8.606894,-1.182689 3.378729,0 6.421437,0.452439 8.614833,1.182689 4.061354,1.357311 4.175125,2.950103 0,4.347104 z m -8.249708,17.941396 c 3.405187,-0.03175 6.495521,-0.510646 8.768292,-1.27 a 10.548937,10.548937 0 0 0 2.561166,-1.203856 v 4.987397 c -0.150812,0.706438 -1.30175,1.418167 -3.087687,2.013479 -2.185459,0.73025 -5.228167,1.182688 -8.606896,1.182688 -0.568854,0 -1.129771,0 -1.677459,-0.03969 a 4.0428333,4.0428333 0 0 1 -0.529166,0.669396 v 0 l -0.912813,0.910169 c 1.005417,0.08467 2.055813,0.129646 3.135313,0.129646 3.548062,0 6.778625,-0.486834 9.133417,-1.272646 1.240895,-0.41275 4.233333,-1.775354 4.233333,-3.402542 V 64.61654 q -0.02381,-11.146896 -0.0053,-22.283209 c 0,-1.561042 -1.621896,-2.878667 -4.233333,-3.754438 -2.365375,-0.785813 -5.595938,-1.272646 -9.144,-1.272646 -3.548063,0 -6.778626,0.486833 -9.133416,1.272646 -2.35479,0.785812 -3.94758,1.960563 -4.21217,3.333751 a 0.82285417,0.82285417 0 0 0 -0.0476,0.280457 v 8.165042 a 3.96875,3.96875 0 0 1 1.37055,-0.24077 h 0.31485 a 0.48947917,0.48947917 0 0 1 0,-0.06085 v 0 -5.204353 a 10.623021,10.623021 0 0 0 2.58763,1.222375 c 2.34156,0.785811 5.564186,1.285875 9.120186,1.285875 3.556,0 6.778625,-0.500063 9.144,-1.285875 a 10.548937,10.548937 0 0 0 2.561167,-1.206501 v 5.344583 c -0.150813,0.709084 -1.30175,1.420812 -3.087688,2.016125 -2.185458,0.73025 -5.228167,1.182688 -8.606896,1.182688 -1.082146,0 -2.132542,-0.04763 -3.130021,-0.134937 l 0.431271,0.433913 c 0.06085,0.05292 0.119063,0.105833 0.177271,0.164041 a 3.96875,3.96875 0 0 1 0.806979,1.158875 c 0.558271,0.02381 1.129771,0.03704 1.706563,0.03704 3.548062,0 6.778625,-0.486833 9.133416,-1.272646 a 10.548937,10.548937 0 0 0 2.558521,-1.19856 v 4.987395 c -0.150812,0.706438 -1.30175,1.415521 -3.07975,2.01348 -2.116666,0.703791 -5.000625,1.148291 -8.225896,1.180041 v 1.322917 c 0,0.116417 0,0.232833 -0.01587,0.346604 z M 31.77382,58.226851 a 3.2517292,3.2517292 0 1 0 3.25438,3.251729 3.2517292,3.2517292 0 0 0 -3.25438,-3.251729 z"
         id="path1260"
         style="fill:#ff4500;fill-opacity:1;stroke-width:0.264583" />
      <text
         xml:space="preserve"
         style="font-style:normal;font-variant:normal;font-weight:bold;font-stretch:normal;font-size:10.5833px;line-height:1.25;font-family:sans-serif;-inkscape-font-specification:'sans-serif, Bold';font-variant-ligatures:normal;font-variant-caps:normal;font-variant-numeric:normal;font-variant-east-asian:normal;fill:#ff4500;fill-opacity:1;stroke:none;stroke-width:0.264583"
         x="17.206432"
         y="33.466061"
         id="text3271"><tspan
           sodipodi:role="line"
           style="font-style:normal;font-variant:normal;font-weight:bold;font-stretch:normal;font-size:10.5833px;font-family:sans-serif;-inkscape-font-specification:'sans-serif, Bold';font-variant-ligatures:normal;font-variant-caps:normal;font-variant-numeric:normal;font-variant-east-asian:normal;fill:#ff4500;fill-opacity:1;stroke-width:0.264583"
           x="17.206432"
           y="33.466061"
           id="tspan3273">OAI-PMH</tspan></text>
    </g>
    <g
       id="g23306"
       transform="translate(9.0916174,10.335885)"
       style="fill:#ff4500;fill-opacity:1">
      <path
         class="cls-1"
         d="m 164.95456,44.891852 c 2.05317,0.687917 4.91596,1.11125 8.09361,1.11125 3.17764,0 6.03779,-0.423333 8.09095,-1.11125 1.80446,-0.60325 2.91042,-1.322916 2.91042,-2.042583 0,-0.719667 -1.11654,-1.441979 -2.91042,-2.045229 -2.05316,-0.682625 -4.91331,-1.11125 -8.08831,-1.11125 -3.175,0 -6.04044,0.428625 -8.09625,1.11125 -3.82323,1.277937 -3.92906,2.775479 0,4.087812 z m 23.54792,6.553729 a 0.39422917,0.39422917 0 0 0 -0.26459,-0.0979 0.22754167,0.22754167 0 0 0 -0.0582,0 h -8.42168 a 0.8255,0.8255 0 0 0 -0.58738,0.246063 0.8175625,0.8175625 0 0 0 -0.24606,0.587375 V 68.15666 a 0.841375,0.841375 0 0 0 0.83344,0.836084 h 12.37985 A 0.841375,0.841375 0 0 0 192.9713,68.15666 V 56.210727 a 0.35454167,0.35454167 0 0 0 0,-0.0926 0.39952083,0.39952083 0 0 0 -0.127,-0.283104 l -4.29419,-4.36298 a 0.14022917,0.14022917 0 0 0 -0.0317,-0.02646 z m -1.17211,1.307042 v 2.696104 a 1.3440833,1.3440833 0 0 0 0.33073,0.889 c 0.20373,0.203729 0.94721,0.679979 1.25677,0.679979 h 2.66171 v 10.496021 c 0,0.01852 -0.0291,0.04498 -0.0476,0.05821 -0.0185,0.01323 -0.0132,0.02646 -0.0397,0.02646 h -11.0887 a 0.06879167,0.06879167 0 0 1 -0.0609,-0.02646 0.09789583,0.09789583 0 0 1 -0.0265,-0.05821 V 52.837289 a 0.0635,0.0635 0 0 1 0.0265,-0.05821 0.07672917,0.07672917 0 0 1 0.0609,-0.02646 z m 1.29117,2.611437 v -2.418291 l 2.77019,2.809875 h -2.38125 a 0.38629167,0.38629167 0 0 1 -0.38365,-0.383646 z m -26.56152,-4.799541 c 0.14023,0.66675 1.22502,1.322916 2.91042,1.894416 2.05316,0.687917 4.91595,1.11125 8.0936,1.11125 1.10596,0 2.17752,-0.05292 3.18823,-0.148166 v 1.5875 c -1.016,0.0926 -2.08492,0.142875 -3.175,0.142875 -3.33904,0 -6.37381,-0.455084 -8.58573,-1.195917 a 9.7895833,9.7895833 0 0 1 -2.43152,-1.143 v 4.688417 c 0.14023,0.66675 1.22502,1.322916 2.91042,1.897062 2.05316,0.682625 4.91595,1.108604 8.0936,1.108604 1.10331,0 2.17488,-0.05027 3.175,-0.145521 v 1.579563 c -1.01865,0.0926 -2.08756,0.142875 -3.18823,0.142875 -3.3364,0 -6.37381,-0.457729 -8.58573,-1.198563 a 9.8768958,9.8768958 0 0 1 -2.40506,-1.148291 v 4.691062 c 0.14023,0.664104 1.22502,1.322917 2.91042,1.894417 2.05581,0.685271 4.91595,1.11125 8.0936,1.11125 1.1086,0 2.17752,-0.05292 3.175,-0.150813 v 1.217084 a 2.2251458,2.2251458 0 0 0 0.0185,0.351896 c -1.02394,0.09525 -2.09815,0.14552 -3.2041,0.14552 -3.3364,0 -6.37382,-0.457729 -8.58573,-1.198562 -1.16946,-0.388938 -3.99521,-1.669521 -3.99521,-3.198813 v -0.500062 c 0,-6.982354 0,-14.268979 0,-21.24075 0,-1.473729 1.524,-2.711979 3.98462,-3.534833 2.21721,-0.740833 5.25727,-1.195917 8.59367,-1.195917 3.3364,0 6.36852,0.455084 8.58838,1.198563 2.21985,0.743479 3.70416,1.852083 3.95287,3.135312 a 0.7699375,0.7699375 0 0 1 0.045,0.264584 v 5.926666 h -1.57162 v -3.439583 a 9.7525417,9.7525417 0 0 1 -2.42623,1.153583 c -2.21457,0.756709 -5.24934,1.198563 -8.58573,1.198563 -3.3364,0 -6.37646,-0.441854 -8.59632,-1.198563 a 9.7710625,9.7710625 0 0 1 -2.39712,-1.132416 z"
         id="path1211"
         style="fill:#ff4500;fill-opacity:1;stroke-width:0.264583" />
      <text
         xml:space="preserve"
         style="font-style:normal;font-variant:normal;font-weight:bold;font-stretch:normal;font-size:10.5833px;line-height:1.25;font-family:sans-serif;-inkscape-font-specification:'sans-serif, Bold';font-variant-ligatures:normal;font-variant-caps:normal;font-variant-numeric:normal;font-variant-east-asian:normal;fill:#ff4500;fill-opacity:1;stroke:none;stroke-width:0.264583"
         x="170.07268"
         y="33.331459"
         id="text4731"><tspan
           sodipodi:role="line"
           id="tspan4729"
           style="font-style:normal;font-variant:normal;font-weight:bold;font-stretch:normal;font-size:10.5833px;font-family:sans-serif;-inkscape-font-specification:'sans-serif, Bold';font-variant-ligatures:normal;font-variant-caps:normal;font-variant-numeric:normal;font-variant-east-asian:normal;fill:#ff4500;fill-opacity:1;stroke-width:0.264583"
           x="170.07268"
           y="33.331459">S3</tspan></text>
    </g>
    <rect
       style="fill:none;stroke:#ff4500;stroke-width:2;stroke-linecap:round;stroke-linejoin:round;stroke-miterlimit:4;stroke-dasharray:4, 4;stroke-dashoffset:0;stroke-opacity:1;paint-order:fill markers stroke"
       id="rect16489"
       width="67.73333"
       height="148.68515"
       x="78.018303"
       y="95.486679" />
    <path
       style="fill:#ff4500;fill-opacity:1;fill-rule:evenodd;stroke:#ff4500;stroke-width:2;stroke-linecap:round;stroke-linejoin:miter;stroke-miterlimit:4;stroke-dasharray:none;stroke-opacity:1"
       d="m 111.88497,137.36223 v 24.64991"
       id="path17051"
       inkscape:connector-type="polyline"
       inkscape:connector-curvature="0"
       inkscape:connection-start="#path876"
       inkscape:connection-end="#path1021" />
    <path
       style="fill:none;stroke:none;stroke-width:0.413724;stroke-linecap:round;stroke-linejoin:round;stroke-miterlimit:4;stroke-dasharray:none;stroke-dashoffset:22.6772;stroke-opacity:1;paint-order:fill markers stroke"
       d="m 97.22085,176.41672 v -8.05494 h 14.66412 14.66412 v 8.05494 8.05494 H 111.88497 97.22085 Z m 7.02226,3.71766 c 0,-0.43274 0.43602,-0.61961 1.44576,-0.61961 1.00973,0 1.44575,0.18687 1.44575,0.61961 0,0.45019 0.46388,0.61961 1.69649,0.61961 1.1857,0 1.63784,-0.15546 1.50171,-0.51634 -0.10713,-0.28399 -0.82408,-2.24218 -1.59322,-4.35154 l -1.39844,-3.83519 -1.63526,0.11753 -1.63527,0.11753 -1.56489,4.13074 c -0.86069,2.2719 -1.56541,4.17721 -1.56605,4.23401 -5.3e-4,0.0568 0.74236,0.10326 1.65112,0.10326 1.19332,0 1.6523,-0.17211 1.6523,-0.61961 z m 9.91377,-1.03268 c 0,-1.6064 0.0393,-1.6523 1.41625,-1.6523 1.75856,0 2.71448,-0.9081 2.71448,-2.57869 0,-2.19189 -0.9451,-2.79126 -4.40129,-2.79126 h -3.03403 v 4.33727 4.33727 h 1.65229 1.6523 z m 8.26147,-2.68498 v -4.33727 h -1.44576 -1.44575 v 4.33727 4.33727 h 1.44575 1.44576 z"
       id="path18385"
       inkscape:export-filename="/home/c_himp01/dataasee-gfx/info.png"
       inkscape:export-xdpi="96"
       inkscape:export-ydpi="96" />
    <path
       style="fill:none;stroke:none;stroke-width:0.0517155;stroke-linecap:round;stroke-linejoin:round;stroke-miterlimit:4;stroke-dasharray:none;stroke-dashoffset:22.6772;stroke-opacity:1;paint-order:fill markers stroke"
       d="m 97.388262,184.83694 c -0.106764,-0.0382 -0.232349,-0.10117 -0.279077,-0.13992 -0.230153,-0.19087 -0.223867,0.0481 -0.223867,-8.51099 V 168.0778 H 111.8113 c 12.867,0 14.93615,0.0102 14.99974,0.0738 0.0633,0.0633 0.0737,1.21863 0.0736,8.14529 -2.1e-4,7.91438 -0.002,8.07476 -0.10098,8.23684 -0.0554,0.0909 -0.17734,0.2071 -0.27089,0.25817 -0.16246,0.0887 -0.81598,0.0934 -14.55023,0.1037 -11.93694,0.009 -14.413111,-0.001 -14.574248,-0.0586 z m 6.594198,-5.12929 0.20697,-0.6849 1.52085,0.0137 1.52085,0.0136 0.20482,0.68416 0.20481,0.68415 h 1.20565 c 0.93132,0 1.20512,-0.0147 1.20334,-0.0645 -0.001,-0.0355 -0.66995,-1.84205 -1.48597,-4.01456 l -1.48365,-3.95002 -0.5665,-0.0166 c -0.67662,-0.0199 -1.99751,0.0371 -2.08286,0.0899 -0.0529,0.0327 -2.90534,7.52761 -2.98361,7.83947 l -0.0297,0.1184 1.17902,-0.0139 1.17903,-0.0139 z m 18.25526,-3.31675 v -4.02747 h -1.13595 -1.13595 v 4.02747 4.02747 h 1.13595 1.13595 z m -8.57128,2.46208 v -1.51376 l 1.32959,-0.0566 c 1.13133,-0.0481 1.37701,-0.0731 1.64768,-0.16753 0.96506,-0.33661 1.46328,-1.12816 1.46328,-2.32486 0,-1.24327 -0.48833,-1.96838 -1.54269,-2.29068 -0.31835,-0.0973 -0.51041,-0.10584 -2.78168,-0.12353 l -2.43971,-0.019 v 4.00485 4.00485 h 1.16177 1.16176 z"
       id="path18424" />
    <path
       style="fill:none;stroke:none;stroke-width:0.052;stroke-linecap:round;stroke-linejoin:round;stroke-miterlimit:4;stroke-dasharray:none;stroke-dashoffset:22.6772;stroke-opacity:1;paint-order:fill markers stroke"
       d="m 97.388262,184.83694 c -0.106764,-0.0382 -0.232349,-0.10117 -0.279077,-0.13992 -0.230153,-0.19087 -0.223867,0.0481 -0.223867,-8.51099 V 168.0778 H 111.8113 c 12.867,0 14.93615,0.0102 14.99974,0.0738 0.0633,0.0633 0.0737,1.21863 0.0736,8.14529 -2.1e-4,7.91438 -0.002,8.07476 -0.10098,8.23684 -0.0554,0.0909 -0.17734,0.2071 -0.27089,0.25817 -0.16246,0.0887 -0.81598,0.0934 -14.55023,0.1037 -11.93694,0.009 -14.413111,-0.001 -14.574248,-0.0586 z m 6.058558,-4.45138 0.33957,-0.0321 0.19689,-0.66538 0.19688,-0.66536 1.5265,0.0137 1.5265,0.0137 0.18367,0.59379 c 0.10102,0.32659 0.20039,0.63514 0.22082,0.68566 0.0342,0.0846 0.13196,0.0915 1.22577,0.0869 0.65375,-0.003 1.18863,-0.0215 1.18863,-0.0417 0,-0.0202 -0.6702,-1.82523 -1.48934,-4.01112 l -1.48935,-3.97435 -1.10769,0.005 c -0.60923,0.003 -1.21437,0.0215 -1.34475,0.041 l -0.23705,0.0356 -0.40034,1.06912 c -0.22018,0.58801 -0.885,2.35499 -1.47737,3.92661 -0.59237,1.57163 -1.07703,2.87862 -1.07703,2.90442 0,0.053 1.49511,0.0635 2.01769,0.0141 z m 18.7909,-3.99466 v -4.02747 h -1.13595 -1.13595 v 3.99305 c 0,2.19618 0.0155,4.00854 0.0344,4.02747 0.019,0.0189 0.53011,0.0344 1.13596,0.0344 h 1.10152 z m -8.57128,2.45263 v -1.52321 l 0.27108,-5.3e-4 c 0.83618,-0.002 2.02369,-0.068 2.34845,-0.13094 0.92886,-0.17997 1.58539,-0.8152 1.77211,-1.71461 0.0928,-0.44724 0.0386,-1.36315 -0.10246,-1.72965 -0.21094,-0.5481 -0.58825,-0.92701 -1.13949,-1.14432 -0.51462,-0.20287 -0.87358,-0.22905 -3.21423,-0.23439 l -2.25899,-0.005 v 4.00302 4.00303 h 1.16177 1.16176 z"
       id="path18463" />
    <path
       class="st0"
       d="m 99.558033,222.59776 h 1.759487 l 0.63235,3.34698 0.92604,-3.34698 h 1.74625 l 0.93398,3.35227 0.63765,-3.35227 h 1.75154 l -1.32292,6.00075 h -1.81769 l -1.05304,-3.77825 -1.0451,3.77825 h -1.81504 z M 97.830304,210.5698 h 28.109336 c 1.21179,0 2.20133,0.98954 2.20133,2.20134 v 19.7432 c 0,1.20915 -0.98954,2.20134 -2.20133,2.20134 H 97.830304 c -1.211792,0 -2.201334,-0.99219 -2.201334,-2.20134 v -19.7432 c 0,-1.2118 0.989542,-2.20134 2.201334,-2.20134 z m 29.011566,6.16215 H 97.028616 v 15.99671 c 0,0.16933 0.06615,0.3175 0.177272,0.43127 0.111125,0.11112 0.261937,0.17727 0.43127,0.17727 h 28.585582 c 0.16934,0 0.3175,-0.0662 0.43128,-0.17727 0.11377,-0.11377 0.17727,-0.26194 0.17727,-0.43127 v -15.99671 z m -2.99773,-3.68829 c 0.6006,0 1.08744,0.48683 1.08744,1.08743 0,0.60061 -0.48684,1.08744 -1.08744,1.08744 -0.6006,0 -1.08744,-0.48683 -1.08744,-1.08744 0,-0.6006 0.48948,-1.08743 1.08744,-1.08743 z m -7.366,0 c 0.6006,0 1.08744,0.48683 1.08744,1.08743 0,0.60061 -0.48684,1.08744 -1.08744,1.08744 -0.6006,0 -1.08744,-0.48683 -1.08744,-1.08744 0,-0.6006 0.48684,-1.08743 1.08744,-1.08743 z m 3.683,0 c 0.6006,0 1.08744,0.48683 1.08744,1.08743 0,0.60061 -0.48684,1.08744 -1.08744,1.08744 -0.6006,0 -1.08744,-0.48683 -1.08744,-1.08744 0,-0.6006 0.48684,-1.08743 1.08744,-1.08743 z m -3.81529,9.5541 h 1.75948 l 0.63235,3.34698 0.92604,-3.34698 h 1.74625 l 0.93398,3.35227 0.63765,-3.35227 h 1.75154 l -1.32292,6.00075 h -1.81768 l -1.05305,-3.77825 -1.0451,3.77825 h -1.81504 z m -8.39258,0 h 1.75947 l 0.63236,3.34698 0.92604,-3.34698 h 1.74625 l 0.93398,3.35227 0.63765,-3.35227 h 1.75154 l -1.32292,6.00075 h -1.81769 l -1.05304,-3.77825 -1.0451,3.77825 h -1.81504 z"
       id="path22768"
       style="fill:#ff4500;fill-opacity:1;stroke-width:0.264583" />
    <g
       id="g38186"
       transform="translate(3.9904247,16.625201)"
       style="fill:#ff4500;fill-opacity:1">
      <g
         id="g34009"
         style="fill:#ff4500;fill-opacity:1">
        <text
           xml:space="preserve"
           style="font-style:normal;font-variant:normal;font-weight:normal;font-stretch:normal;font-size:10.5833px;line-height:1.25;font-family:sans-serif;-inkscape-font-specification:'sans-serif, Normal';font-variant-ligatures:normal;font-variant-caps:normal;font-variant-numeric:normal;font-variant-east-asian:normal;fill:#ff4500;fill-opacity:1;stroke:none;stroke-width:0.264583"
           x="84.581993"
           y="25.11657"
           id="text11243"><tspan
             sodipodi:role="line"
             id="tspan17537"
             x="84.581993"
             y="25.11657">DataCite</tspan></text>
      </g>
      <text
         xml:space="preserve"
         style="font-style:normal;font-weight:normal;font-size:10.5833px;line-height:1.25;font-family:sans-serif;fill:#ff4500;fill-opacity:1;stroke:none;stroke-width:0.264583"
         x="78.383423"
         y="39.270473"
         id="text27943"><tspan
           sodipodi:role="line"
           id="tspan27941"
           style="fill:#ff4500;fill-opacity:1;stroke-width:0.264583"
           x="78.383423"
           y="39.270473">DublinCore</tspan></text>
      <text
         xml:space="preserve"
         style="font-style:normal;font-weight:normal;font-size:10.5833px;line-height:1.25;font-family:sans-serif;fill:#ff4500;fill-opacity:1;stroke:none;stroke-width:0.264583"
         x="91.560867"
         y="51.970474"
         id="text29519"><tspan
           sodipodi:role="line"
           style="fill:#ff4500;fill-opacity:1;stroke-width:0.264583"
           x="91.560867"
           y="51.970474"
           id="tspan29521">MODS</tspan></text>
      <text
         xml:space="preserve"
         style="font-style:normal;font-weight:normal;font-size:10.5833px;line-height:1.25;font-family:sans-serif;fill:#ff4500;fill-opacity:1;stroke:none;stroke-width:0.264583"
         x="92.423866"
         y="64.670471"
         id="text30253"><tspan
           sodipodi:role="line"
           id="tspan30251"
           style="fill:#ff4500;fill-opacity:1;stroke-width:0.264583"
           x="92.423866"
           y="64.670471">MARC</tspan></text>
    </g>
    <path
       style="fill:#333333;fill-rule:evenodd;stroke:#00c3ff;stroke-width:2.00000006;stroke-linecap:butt;stroke-linejoin:miter;stroke-miterlimit:4;stroke-dasharray:4.00000011,2.00000006;stroke-dashoffset:4.00000011;stroke-opacity:1;marker-end:url(#Arrow1Send)"
       d="m 111.88497,210.5698 0,-25.67414"
       id="path32477"
       inkscape:connector-type="polyline"
       inkscape:connector-curvature="0"
       inkscape:connection-start="#path22768"
       inkscape:connection-end="#path18463" />
    <path
       style="fill:#333333;fill-rule:evenodd;stroke:#00c3ff;stroke-width:2.00000006;stroke-linecap:butt;stroke-linejoin:miter;stroke-miterlimit:4;stroke-dasharray:4.00000011,2.00000006;stroke-dashoffset:4.00000011;stroke-opacity:1;marker-end:url(#Arrow1Send)"
       d="M 52.63172,212.7068 98.166125,184.87382"
       id="path32865"
       inkscape:connector-type="polyline"
       inkscape:connector-curvature="0"
       inkscape:connection-start="#path1121"
       inkscape:connection-end="#path18463" />
    <path
       style="fill:#333333;fill-rule:evenodd;stroke:#00c3ff;stroke-width:2.00000006;stroke-linecap:butt;stroke-linejoin:miter;stroke-miterlimit:4;stroke-dasharray:4.00000011,2.00000006;stroke-dashoffset:4.00000011;stroke-opacity:1;marker-end:url(#Arrow1Send)"
       d="m 176.4406,216.82351 -51.151,-31.95994"
       id="path32977"
       inkscape:connector-type="polyline"
       inkscape:connector-curvature="0"
       inkscape:connection-start="#path1158"
       inkscape:connection-end="#path18463" />
    <path
       style="fill:#333333;fill-rule:evenodd;stroke:#00c3ff;stroke-width:2.00000006;stroke-linecap:butt;stroke-linejoin:miter;stroke-miterlimit:4;stroke-dasharray:4.00000011,2.00000006;stroke-dashoffset:4.00000011;stroke-opacity:1;marker-end:url(#Arrow1Send)"
       d="M 99.317338,110.15269 52.233215,68.966972"
       id="path33081"
       inkscape:connector-type="polyline"
       inkscape:connector-curvature="0"
       inkscape:connection-start="#path876"
       inkscape:connection-end="#g23301" />
    <path
       style="fill:#333333;fill-rule:evenodd;stroke:#00c3ff;stroke-width:2.00000006;stroke-linecap:butt;stroke-linejoin:miter;stroke-miterlimit:4;stroke-dasharray:4.00000011,2.00000006;stroke-dashoffset:4.00000011;stroke-opacity:1;marker-end:url(#Arrow1Send)"
       d="M 124.63263,110.18418 169.56412,71.547453"
       id="path33185"
       inkscape:connector-type="polyline"
       inkscape:connector-curvature="0"
       inkscape:connection-start="#path876"
       inkscape:connection-end="#g23306" />
    <text
       xml:space="preserve"
       style="font-style:normal;font-variant:normal;font-weight:bold;font-stretch:normal;font-size:11.2889px;line-height:1.25;font-family:sans-serif;-inkscape-font-specification:'sans-serif, Bold';font-variant-ligatures:normal;font-variant-caps:normal;font-variant-numeric:normal;font-variant-east-asian:normal;fill:#ff4500;fill-opacity:1;stroke:none;stroke-width:0.264583"
       x="81.253906"
       y="257.27509"
       id="text48572"><tspan
         sodipodi:role="line"
         id="tspan48570"
         style="font-style:normal;font-variant:normal;font-weight:bold;font-stretch:normal;font-size:11.2889px;font-family:sans-serif;-inkscape-font-specification:'sans-serif, Bold';font-variant-ligatures:normal;font-variant-caps:normal;font-variant-numeric:normal;font-variant-east-asian:normal;fill:#ff4500;fill-opacity:1;stroke-width:0.264583"
         x="81.253906"
         y="257.27509">DatAasee</tspan></text>
  </g>
  <style
     type="text/css"
     id="style1019">.st0{fill-rule:evenodd;clip-rule:evenodd;}</style>
  <style
     type="text/css"
     id="style1069">.st0{fill-rule:evenodd;clip-rule:evenodd;}</style>
  <style
     type="text/css"
     id="style1119">.st0{fill-rule:evenodd;clip-rule:evenodd;}</style>
  <style
     type="text/css"
     id="style22766">.st0{fill-rule:evenodd;clip-rule:evenodd;}</style>
</svg>
