<?xml version="1.0" encoding="UTF-8"?>
<svg xmlns="http://www.w3.org/2000/svg" xmlns:xlink="http://www.w3.org/1999/xlink" width="605pt" height="224pt" viewBox="0 0 843 303" version="1.1">
<defs>
<g>
<symbol overflow="visible" id="glyph0-0">
<path style="stroke:none;" d="M 0.78125 2.796875 L 0.78125 -11.15625 L 8.6875 -11.15625 L 8.6875 2.796875 Z M 1.671875 1.921875 L 7.8125 1.921875 L 7.8125 -10.265625 L 1.671875 -10.265625 Z M 1.671875 1.921875 "/>
</symbol>
<symbol overflow="visible" id="glyph0-1">
<path style="stroke:none;" d="M 9.46875 -11.171875 L 9.46875 -8.71875 C 8.84375 -9.007812 8.226562 -9.222656 7.625 -9.359375 C 7.019531 -9.503906 6.453125 -9.578125 5.921875 -9.578125 C 5.203125 -9.578125 4.671875 -9.476562 4.328125 -9.28125 C 3.992188 -9.09375 3.828125 -8.789062 3.828125 -8.375 C 3.828125 -8.0625 3.941406 -7.816406 4.171875 -7.640625 C 4.398438 -7.472656 4.816406 -7.332031 5.421875 -7.21875 L 6.6875 -6.953125 C 7.96875 -6.703125 8.878906 -6.3125 9.421875 -5.78125 C 9.960938 -5.257812 10.234375 -4.515625 10.234375 -3.546875 C 10.234375 -2.273438 9.851562 -1.328125 9.09375 -0.703125 C 8.34375 -0.0859375 7.191406 0.21875 5.640625 0.21875 C 4.910156 0.21875 4.175781 0.148438 3.4375 0.015625 C 2.707031 -0.117188 1.972656 -0.328125 1.234375 -0.609375 L 1.234375 -3.109375 C 1.972656 -2.722656 2.6875 -2.429688 3.375 -2.234375 C 4.0625 -2.035156 4.722656 -1.9375 5.359375 -1.9375 C 6.003906 -1.9375 6.5 -2.039062 6.84375 -2.25 C 7.1875 -2.46875 7.359375 -2.78125 7.359375 -3.1875 C 7.359375 -3.539062 7.238281 -3.816406 7 -4.015625 C 6.769531 -4.210938 6.304688 -4.390625 5.609375 -4.546875 L 4.46875 -4.796875 C 3.3125 -5.046875 2.46875 -5.4375 1.9375 -5.96875 C 1.40625 -6.507812 1.140625 -7.238281 1.140625 -8.15625 C 1.140625 -9.3125 1.507812 -10.195312 2.25 -10.8125 C 2.988281 -11.425781 4.050781 -11.734375 5.4375 -11.734375 C 6.070312 -11.734375 6.722656 -11.6875 7.390625 -11.59375 C 8.066406 -11.5 8.757812 -11.359375 9.46875 -11.171875 Z M 9.46875 -11.171875 "/>
</symbol>
<symbol overflow="visible" id="glyph0-2">
<path style="stroke:none;" d="M 5.4375 -6.875 C 4.832031 -6.875 4.367188 -6.65625 4.046875 -6.21875 C 3.722656 -5.78125 3.5625 -5.144531 3.5625 -4.3125 C 3.5625 -3.488281 3.722656 -2.851562 4.046875 -2.40625 C 4.367188 -1.96875 4.832031 -1.75 5.4375 -1.75 C 6.039062 -1.75 6.5 -1.96875 6.8125 -2.40625 C 7.132812 -2.851562 7.296875 -3.488281 7.296875 -4.3125 C 7.296875 -5.144531 7.132812 -5.78125 6.8125 -6.21875 C 6.5 -6.65625 6.039062 -6.875 5.4375 -6.875 Z M 5.4375 -8.859375 C 6.925781 -8.859375 8.085938 -8.457031 8.921875 -7.65625 C 9.765625 -6.851562 10.1875 -5.738281 10.1875 -4.3125 C 10.1875 -2.894531 9.765625 -1.785156 8.921875 -0.984375 C 8.085938 -0.179688 6.925781 0.21875 5.4375 0.21875 C 3.945312 0.21875 2.78125 -0.179688 1.9375 -0.984375 C 1.09375 -1.785156 0.671875 -2.894531 0.671875 -4.3125 C 0.671875 -5.738281 1.09375 -6.851562 1.9375 -7.65625 C 2.78125 -8.457031 3.945312 -8.859375 5.4375 -8.859375 Z M 5.4375 -8.859375 "/>
</symbol>
<symbol overflow="visible" id="glyph0-3">
<path style="stroke:none;" d="M 1.234375 -3.359375 L 1.234375 -8.640625 L 4.015625 -8.640625 L 4.015625 -7.78125 C 4.015625 -7.3125 4.007812 -6.722656 4 -6.015625 C 4 -5.304688 4 -4.835938 4 -4.609375 C 4 -3.910156 4.015625 -3.40625 4.046875 -3.09375 C 4.085938 -2.789062 4.148438 -2.570312 4.234375 -2.4375 C 4.347656 -2.25 4.492188 -2.109375 4.671875 -2.015625 C 4.859375 -1.921875 5.070312 -1.875 5.3125 -1.875 C 5.882812 -1.875 6.335938 -2.09375 6.671875 -2.53125 C 7.003906 -2.976562 7.171875 -3.59375 7.171875 -4.375 L 7.171875 -8.640625 L 9.921875 -8.640625 L 9.921875 0 L 7.171875 0 L 7.171875 -1.25 C 6.753906 -0.75 6.3125 -0.378906 5.84375 -0.140625 C 5.375 0.0976562 4.859375 0.21875 4.296875 0.21875 C 3.296875 0.21875 2.535156 -0.0820312 2.015625 -0.6875 C 1.492188 -1.300781 1.234375 -2.191406 1.234375 -3.359375 Z M 1.234375 -3.359375 "/>
</symbol>
<symbol overflow="visible" id="glyph0-4">
<path style="stroke:none;" d="M 7.75 -6.296875 C 7.507812 -6.410156 7.269531 -6.492188 7.03125 -6.546875 C 6.789062 -6.597656 6.550781 -6.625 6.3125 -6.625 C 5.601562 -6.625 5.054688 -6.394531 4.671875 -5.9375 C 4.285156 -5.488281 4.09375 -4.835938 4.09375 -3.984375 L 4.09375 0 L 1.328125 0 L 1.328125 -8.640625 L 4.09375 -8.640625 L 4.09375 -7.234375 C 4.445312 -7.796875 4.851562 -8.207031 5.3125 -8.46875 C 5.769531 -8.726562 6.320312 -8.859375 6.96875 -8.859375 C 7.0625 -8.859375 7.160156 -8.851562 7.265625 -8.84375 C 7.378906 -8.832031 7.539062 -8.816406 7.75 -8.796875 Z M 7.75 -6.296875 "/>
</symbol>
<symbol overflow="visible" id="glyph0-5">
<path style="stroke:none;" d="M 8.3125 -8.375 L 8.3125 -6.125 C 7.9375 -6.382812 7.554688 -6.570312 7.171875 -6.6875 C 6.796875 -6.8125 6.40625 -6.875 6 -6.875 C 5.226562 -6.875 4.628906 -6.648438 4.203125 -6.203125 C 3.773438 -5.753906 3.5625 -5.125 3.5625 -4.3125 C 3.5625 -3.507812 3.773438 -2.878906 4.203125 -2.421875 C 4.628906 -1.972656 5.226562 -1.75 6 -1.75 C 6.4375 -1.75 6.847656 -1.8125 7.234375 -1.9375 C 7.628906 -2.070312 7.988281 -2.265625 8.3125 -2.515625 L 8.3125 -0.25 C 7.882812 -0.09375 7.445312 0.0195312 7 0.09375 C 6.550781 0.175781 6.101562 0.21875 5.65625 0.21875 C 4.09375 0.21875 2.867188 -0.175781 1.984375 -0.96875 C 1.109375 -1.769531 0.671875 -2.882812 0.671875 -4.3125 C 0.671875 -5.738281 1.109375 -6.851562 1.984375 -7.65625 C 2.867188 -8.457031 4.09375 -8.859375 5.65625 -8.859375 C 6.113281 -8.859375 6.5625 -8.816406 7 -8.734375 C 7.4375 -8.648438 7.875 -8.53125 8.3125 -8.375 Z M 8.3125 -8.375 "/>
</symbol>
<symbol overflow="visible" id="glyph0-6">
<path style="stroke:none;" d="M 9.953125 -4.34375 L 9.953125 -3.5625 L 3.5 -3.5625 C 3.5625 -2.914062 3.789062 -2.425781 4.1875 -2.09375 C 4.59375 -1.769531 5.160156 -1.609375 5.890625 -1.609375 C 6.460938 -1.609375 7.050781 -1.691406 7.65625 -1.859375 C 8.269531 -2.035156 8.898438 -2.300781 9.546875 -2.65625 L 9.546875 -0.53125 C 8.890625 -0.28125 8.234375 -0.09375 7.578125 0.03125 C 6.929688 0.15625 6.28125 0.21875 5.625 0.21875 C 4.0625 0.21875 2.84375 -0.175781 1.96875 -0.96875 C 1.101562 -1.757812 0.671875 -2.875 0.671875 -4.3125 C 0.671875 -5.726562 1.097656 -6.835938 1.953125 -7.640625 C 2.804688 -8.453125 3.976562 -8.859375 5.46875 -8.859375 C 6.832031 -8.859375 7.921875 -8.445312 8.734375 -7.625 C 9.546875 -6.8125 9.953125 -5.71875 9.953125 -4.34375 Z M 7.125 -5.265625 C 7.125 -5.785156 6.96875 -6.207031 6.65625 -6.53125 C 6.351562 -6.851562 5.953125 -7.015625 5.453125 -7.015625 C 4.921875 -7.015625 4.488281 -6.863281 4.15625 -6.5625 C 3.820312 -6.257812 3.613281 -5.828125 3.53125 -5.265625 Z M 7.125 -5.265625 "/>
</symbol>
<symbol overflow="visible" id="glyph0-7">
<path style="stroke:none;" d="M 6.0625 -7.0625 C 6.53125 -7.0625 6.882812 -7.164062 7.125 -7.375 C 7.375 -7.582031 7.5 -7.882812 7.5 -8.28125 C 7.5 -8.675781 7.375 -8.976562 7.125 -9.1875 C 6.882812 -9.394531 6.53125 -9.5 6.0625 -9.5 L 4.421875 -9.5 L 4.421875 -7.0625 Z M 6.171875 -2.015625 C 6.765625 -2.015625 7.210938 -2.140625 7.515625 -2.390625 C 7.816406 -2.648438 7.96875 -3.035156 7.96875 -3.546875 C 7.96875 -4.046875 7.816406 -4.421875 7.515625 -4.671875 C 7.222656 -4.921875 6.773438 -5.046875 6.171875 -5.046875 L 4.421875 -5.046875 L 4.421875 -2.015625 Z M 8.9375 -6.171875 C 9.570312 -5.984375 10.0625 -5.640625 10.40625 -5.140625 C 10.757812 -4.640625 10.9375 -4.023438 10.9375 -3.296875 C 10.9375 -2.191406 10.5625 -1.363281 9.8125 -0.8125 C 9.0625 -0.269531 7.921875 0 6.390625 0 L 1.453125 0 L 1.453125 -11.53125 L 5.921875 -11.53125 C 7.515625 -11.53125 8.671875 -11.285156 9.390625 -10.796875 C 10.109375 -10.316406 10.46875 -9.546875 10.46875 -8.484375 C 10.46875 -7.921875 10.335938 -7.441406 10.078125 -7.046875 C 9.816406 -6.648438 9.4375 -6.359375 8.9375 -6.171875 Z M 8.9375 -6.171875 "/>
</symbol>
<symbol overflow="visible" id="glyph0-8">
<path style="stroke:none;" d="M 5.203125 -3.890625 C 4.628906 -3.890625 4.195312 -3.789062 3.90625 -3.59375 C 3.613281 -3.394531 3.46875 -3.109375 3.46875 -2.734375 C 3.46875 -2.378906 3.582031 -2.101562 3.8125 -1.90625 C 4.050781 -1.707031 4.378906 -1.609375 4.796875 -1.609375 C 5.316406 -1.609375 5.753906 -1.796875 6.109375 -2.171875 C 6.460938 -2.546875 6.640625 -3.015625 6.640625 -3.578125 L 6.640625 -3.890625 Z M 9.421875 -4.9375 L 9.421875 0 L 6.640625 0 L 6.640625 -1.28125 C 6.265625 -0.757812 5.84375 -0.378906 5.375 -0.140625 C 4.914062 0.0976562 4.359375 0.21875 3.703125 0.21875 C 2.804688 0.21875 2.078125 -0.0390625 1.515625 -0.5625 C 0.953125 -1.082031 0.671875 -1.757812 0.671875 -2.59375 C 0.671875 -3.601562 1.019531 -4.34375 1.71875 -4.8125 C 2.414062 -5.289062 3.515625 -5.53125 5.015625 -5.53125 L 6.640625 -5.53125 L 6.640625 -5.75 C 6.640625 -6.1875 6.46875 -6.503906 6.125 -6.703125 C 5.78125 -6.910156 5.242188 -7.015625 4.515625 -7.015625 C 3.921875 -7.015625 3.367188 -6.953125 2.859375 -6.828125 C 2.347656 -6.710938 1.875 -6.539062 1.4375 -6.3125 L 1.4375 -8.421875 C 2.03125 -8.554688 2.625 -8.660156 3.21875 -8.734375 C 3.8125 -8.816406 4.410156 -8.859375 5.015625 -8.859375 C 6.566406 -8.859375 7.6875 -8.550781 8.375 -7.9375 C 9.070312 -7.320312 9.421875 -6.320312 9.421875 -4.9375 Z M 9.421875 -4.9375 "/>
</symbol>
<symbol overflow="visible" id="glyph0-9">
<path style="stroke:none;" d="M 1.328125 -12.015625 L 4.09375 -12.015625 L 4.09375 -5.46875 L 7.265625 -8.640625 L 10.484375 -8.640625 L 6.265625 -4.671875 L 10.8125 0 L 7.46875 0 L 4.09375 -3.609375 L 4.09375 0 L 1.328125 0 Z M 1.328125 -12.015625 "/>
</symbol>
<symbol overflow="visible" id="glyph0-10">
<path style="stroke:none;" d="M 10.015625 -5.265625 L 10.015625 0 L 7.25 0 L 7.25 -4.03125 C 7.25 -4.78125 7.226562 -5.296875 7.1875 -5.578125 C 7.15625 -5.859375 7.097656 -6.066406 7.015625 -6.203125 C 6.910156 -6.378906 6.765625 -6.515625 6.578125 -6.609375 C 6.390625 -6.710938 6.175781 -6.765625 5.9375 -6.765625 C 5.363281 -6.765625 4.910156 -6.539062 4.578125 -6.09375 C 4.253906 -5.65625 4.09375 -5.039062 4.09375 -4.25 L 4.09375 0 L 1.328125 0 L 1.328125 -8.640625 L 4.09375 -8.640625 L 4.09375 -7.375 C 4.507812 -7.882812 4.953125 -8.257812 5.421875 -8.5 C 5.890625 -8.738281 6.40625 -8.859375 6.96875 -8.859375 C 7.96875 -8.859375 8.722656 -8.550781 9.234375 -7.9375 C 9.753906 -7.320312 10.015625 -6.429688 10.015625 -5.265625 Z M 10.015625 -5.265625 "/>
</symbol>
<symbol overflow="visible" id="glyph0-11">
<path style="stroke:none;" d="M 7.21875 -7.375 L 7.21875 -12.015625 L 9.984375 -12.015625 L 9.984375 0 L 7.21875 0 L 7.21875 -1.25 C 6.832031 -0.738281 6.410156 -0.363281 5.953125 -0.125 C 5.492188 0.101562 4.960938 0.21875 4.359375 0.21875 C 3.296875 0.21875 2.421875 -0.203125 1.734375 -1.046875 C 1.046875 -1.890625 0.703125 -2.976562 0.703125 -4.3125 C 0.703125 -5.644531 1.046875 -6.734375 1.734375 -7.578125 C 2.421875 -8.429688 3.296875 -8.859375 4.359375 -8.859375 C 4.960938 -8.859375 5.492188 -8.738281 5.953125 -8.5 C 6.410156 -8.257812 6.832031 -7.882812 7.21875 -7.375 Z M 5.390625 -1.78125 C 5.984375 -1.78125 6.4375 -1.992188 6.75 -2.421875 C 7.0625 -2.859375 7.21875 -3.488281 7.21875 -4.3125 C 7.21875 -5.132812 7.0625 -5.757812 6.75 -6.1875 C 6.4375 -6.625 5.984375 -6.84375 5.390625 -6.84375 C 4.804688 -6.84375 4.359375 -6.625 4.046875 -6.1875 C 3.734375 -5.757812 3.578125 -5.132812 3.578125 -4.3125 C 3.578125 -3.488281 3.734375 -2.859375 4.046875 -2.421875 C 4.359375 -1.992188 4.804688 -1.78125 5.390625 -1.78125 Z M 5.390625 -1.78125 "/>
</symbol>
<symbol overflow="visible" id="glyph0-12">
<path style="stroke:none;" d="M 4.421875 -9.28125 L 4.421875 -2.25 L 5.484375 -2.25 C 6.703125 -2.25 7.628906 -2.546875 8.265625 -3.140625 C 8.910156 -3.742188 9.234375 -4.625 9.234375 -5.78125 C 9.234375 -6.914062 8.910156 -7.78125 8.265625 -8.375 C 7.628906 -8.976562 6.703125 -9.28125 5.484375 -9.28125 Z M 1.453125 -11.53125 L 4.59375 -11.53125 C 6.34375 -11.53125 7.644531 -11.40625 8.5 -11.15625 C 9.351562 -10.90625 10.085938 -10.484375 10.703125 -9.890625 C 11.242188 -9.367188 11.644531 -8.765625 11.90625 -8.078125 C 12.164062 -7.398438 12.296875 -6.632812 12.296875 -5.78125 C 12.296875 -4.90625 12.164062 -4.125 11.90625 -3.4375 C 11.644531 -2.757812 11.242188 -2.160156 10.703125 -1.640625 C 10.085938 -1.046875 9.347656 -0.625 8.484375 -0.375 C 7.617188 -0.125 6.320312 0 4.59375 0 L 1.453125 0 Z M 1.453125 -11.53125 "/>
</symbol>
<symbol overflow="visible" id="glyph0-13">
<path style="stroke:none;" d="M 4.34375 -11.109375 L 4.34375 -8.640625 L 7.203125 -8.640625 L 7.203125 -6.671875 L 4.34375 -6.671875 L 4.34375 -3 C 4.34375 -2.601562 4.421875 -2.332031 4.578125 -2.1875 C 4.742188 -2.050781 5.0625 -1.984375 5.53125 -1.984375 L 6.953125 -1.984375 L 6.953125 0 L 4.59375 0 C 3.5 0 2.722656 -0.222656 2.265625 -0.671875 C 1.804688 -1.128906 1.578125 -1.90625 1.578125 -3 L 1.578125 -6.671875 L 0.203125 -6.671875 L 0.203125 -8.640625 L 1.578125 -8.640625 L 1.578125 -11.109375 Z M 4.34375 -11.109375 "/>
</symbol>
<symbol overflow="visible" id="glyph0-14">
<path style="stroke:none;" d="M 5.9375 -1.78125 C 6.519531 -1.78125 6.96875 -1.992188 7.28125 -2.421875 C 7.59375 -2.859375 7.75 -3.488281 7.75 -4.3125 C 7.75 -5.132812 7.59375 -5.757812 7.28125 -6.1875 C 6.96875 -6.625 6.519531 -6.84375 5.9375 -6.84375 C 5.34375 -6.84375 4.882812 -6.625 4.5625 -6.1875 C 4.25 -5.757812 4.09375 -5.132812 4.09375 -4.3125 C 4.09375 -3.5 4.25 -2.875 4.5625 -2.4375 C 4.882812 -2 5.34375 -1.78125 5.9375 -1.78125 Z M 4.09375 -7.375 C 4.46875 -7.882812 4.882812 -8.257812 5.34375 -8.5 C 5.8125 -8.738281 6.347656 -8.859375 6.953125 -8.859375 C 8.023438 -8.859375 8.898438 -8.429688 9.578125 -7.578125 C 10.265625 -6.734375 10.609375 -5.644531 10.609375 -4.3125 C 10.609375 -2.976562 10.265625 -1.890625 9.578125 -1.046875 C 8.898438 -0.203125 8.023438 0.21875 6.953125 0.21875 C 6.347656 0.21875 5.8125 0.0976562 5.34375 -0.140625 C 4.882812 -0.378906 4.46875 -0.75 4.09375 -1.25 L 4.09375 0 L 1.328125 0 L 1.328125 -12.015625 L 4.09375 -12.015625 Z M 4.09375 -7.375 "/>
</symbol>
<symbol overflow="visible" id="glyph0-15">
<path style="stroke:none;" d="M 8.078125 -8.375 L 8.078125 -6.28125 C 7.492188 -6.519531 6.925781 -6.703125 6.375 -6.828125 C 5.820312 -6.953125 5.300781 -7.015625 4.8125 -7.015625 C 4.28125 -7.015625 3.890625 -6.945312 3.640625 -6.8125 C 3.390625 -6.6875 3.265625 -6.488281 3.265625 -6.21875 C 3.265625 -6 3.359375 -5.828125 3.546875 -5.703125 C 3.742188 -5.585938 4.09375 -5.5 4.59375 -5.4375 L 5.078125 -5.375 C 6.492188 -5.195312 7.441406 -4.898438 7.921875 -4.484375 C 8.410156 -4.078125 8.65625 -3.429688 8.65625 -2.546875 C 8.65625 -1.628906 8.316406 -0.9375 7.640625 -0.46875 C 6.960938 -0.0078125 5.953125 0.21875 4.609375 0.21875 C 4.035156 0.21875 3.441406 0.171875 2.828125 0.078125 C 2.222656 -0.00390625 1.597656 -0.132812 0.953125 -0.3125 L 0.953125 -2.421875 C 1.503906 -2.148438 2.066406 -1.945312 2.640625 -1.8125 C 3.222656 -1.675781 3.8125 -1.609375 4.40625 -1.609375 C 4.945312 -1.609375 5.351562 -1.679688 5.625 -1.828125 C 5.894531 -1.984375 6.03125 -2.207031 6.03125 -2.5 C 6.03125 -2.75 5.9375 -2.929688 5.75 -3.046875 C 5.5625 -3.171875 5.1875 -3.265625 4.625 -3.328125 L 4.140625 -3.390625 C 2.910156 -3.546875 2.046875 -3.832031 1.546875 -4.25 C 1.054688 -4.664062 0.8125 -5.300781 0.8125 -6.15625 C 0.8125 -7.070312 1.125 -7.75 1.75 -8.1875 C 2.382812 -8.632812 3.347656 -8.859375 4.640625 -8.859375 C 5.148438 -8.859375 5.6875 -8.816406 6.25 -8.734375 C 6.8125 -8.660156 7.421875 -8.539062 8.078125 -8.375 Z M 8.078125 -8.375 "/>
</symbol>
<symbol overflow="visible" id="glyph0-16">
<path style="stroke:none;" d="M 1.453125 -11.53125 L 4.421875 -11.53125 L 4.421875 0 L 1.453125 0 Z M 1.453125 -11.53125 "/>
</symbol>
<symbol overflow="visible" id="glyph0-17">
<path style="stroke:none;" d="M 7.21875 -1.46875 C 6.832031 -0.957031 6.410156 -0.582031 5.953125 -0.34375 C 5.492188 -0.113281 4.960938 0 4.359375 0 C 3.304688 0 2.429688 -0.414062 1.734375 -1.25 C 1.046875 -2.082031 0.703125 -3.140625 0.703125 -4.421875 C 0.703125 -5.710938 1.046875 -6.769531 1.734375 -7.59375 C 2.429688 -8.425781 3.304688 -8.84375 4.359375 -8.84375 C 4.960938 -8.84375 5.492188 -8.722656 5.953125 -8.484375 C 6.410156 -8.242188 6.832031 -7.867188 7.21875 -7.359375 L 7.21875 -8.640625 L 9.984375 -8.640625 L 9.984375 -0.875 C 9.984375 0.519531 9.546875 1.582031 8.671875 2.3125 C 7.796875 3.039062 6.523438 3.40625 4.859375 3.40625 C 4.316406 3.40625 3.789062 3.363281 3.28125 3.28125 C 2.78125 3.207031 2.273438 3.082031 1.765625 2.90625 L 1.765625 0.75 C 2.253906 1.03125 2.726562 1.238281 3.1875 1.375 C 3.65625 1.507812 4.125 1.578125 4.59375 1.578125 C 5.488281 1.578125 6.148438 1.378906 6.578125 0.984375 C 7.003906 0.585938 7.21875 -0.03125 7.21875 -0.875 Z M 5.390625 -6.84375 C 4.816406 -6.84375 4.367188 -6.628906 4.046875 -6.203125 C 3.734375 -5.785156 3.578125 -5.191406 3.578125 -4.421875 C 3.578125 -3.628906 3.726562 -3.023438 4.03125 -2.609375 C 4.34375 -2.203125 4.796875 -2 5.390625 -2 C 5.960938 -2 6.410156 -2.210938 6.734375 -2.640625 C 7.054688 -3.066406 7.21875 -3.660156 7.21875 -4.421875 C 7.21875 -5.191406 7.054688 -5.785156 6.734375 -6.203125 C 6.410156 -6.628906 5.960938 -6.84375 5.390625 -6.84375 Z M 5.390625 -6.84375 "/>
</symbol>
<symbol overflow="visible" id="glyph0-18">
<path style="stroke:none;" d="M 5.671875 -6.421875 C 6.296875 -6.421875 6.742188 -6.535156 7.015625 -6.765625 C 7.285156 -6.992188 7.421875 -7.375 7.421875 -7.90625 C 7.421875 -8.425781 7.285156 -8.800781 7.015625 -9.03125 C 6.742188 -9.257812 6.296875 -9.375 5.671875 -9.375 L 4.421875 -9.375 L 4.421875 -6.421875 Z M 4.421875 -4.359375 L 4.421875 0 L 1.453125 0 L 1.453125 -11.53125 L 5.984375 -11.53125 C 7.503906 -11.53125 8.617188 -11.273438 9.328125 -10.765625 C 10.035156 -10.253906 10.390625 -9.445312 10.390625 -8.34375 C 10.390625 -7.582031 10.203125 -6.957031 9.828125 -6.46875 C 9.460938 -5.976562 8.910156 -5.617188 8.171875 -5.390625 C 8.578125 -5.296875 8.941406 -5.082031 9.265625 -4.75 C 9.585938 -4.425781 9.914062 -3.9375 10.25 -3.28125 L 11.859375 0 L 8.6875 0 L 7.28125 -2.859375 C 7 -3.441406 6.710938 -3.835938 6.421875 -4.046875 C 6.128906 -4.253906 5.742188 -4.359375 5.265625 -4.359375 Z M 4.421875 -4.359375 "/>
</symbol>
<symbol overflow="visible" id="glyph1-0">
<path style="stroke:none;" d="M 4.046875 14.359375 L 4.046875 -57.3125 L 44.6875 -57.3125 L 44.6875 14.359375 Z M 8.609375 9.84375 L 40.171875 9.84375 L 40.171875 -52.75 L 8.609375 -52.75 Z M 8.609375 9.84375 "/>
</symbol>
<symbol overflow="visible" id="glyph1-1">
<path style="stroke:none;" d="M 7.984375 -59.25 L 45.4375 -59.25 L 45.4375 -52.5 L 16 -52.5 L 16 -34.96875 L 44.21875 -34.96875 L 44.21875 -28.21875 L 16 -28.21875 L 16 -6.75 L 46.15625 -6.75 L 46.15625 0 L 7.984375 0 Z M 7.984375 -59.25 "/>
</symbol>
<symbol overflow="visible" id="glyph1-2">
<path style="stroke:none;" d="M 14.890625 -57.078125 L 14.890625 -44.453125 L 29.921875 -44.453125 L 29.921875 -38.78125 L 14.890625 -38.78125 L 14.890625 -14.640625 C 14.890625 -11.015625 15.382812 -8.6875 16.375 -7.65625 C 17.363281 -6.625 19.378906 -6.109375 22.421875 -6.109375 L 29.921875 -6.109375 L 29.921875 0 L 22.421875 0 C 16.785156 0 12.894531 -1.050781 10.75 -3.15625 C 8.613281 -5.257812 7.546875 -9.085938 7.546875 -14.640625 L 7.546875 -38.78125 L 2.1875 -38.78125 L 2.1875 -44.453125 L 7.546875 -44.453125 L 7.546875 -57.078125 Z M 14.890625 -57.078125 "/>
</symbol>
<symbol overflow="visible" id="glyph1-3">
<path style="stroke:none;" d="M 7.984375 -59.25 L 16 -59.25 L 16 -6.75 L 44.84375 -6.75 L 44.84375 0 L 7.984375 0 Z M 7.984375 -59.25 "/>
</symbol>
<symbol overflow="visible" id="glyph1-4">
<path style="stroke:none;" d="M -0.234375 -59.25 L 49.890625 -59.25 L 49.890625 -52.5 L 28.859375 -52.5 L 28.859375 0 L 20.796875 0 L 20.796875 -52.5 L -0.234375 -52.5 Z M -0.234375 -59.25 "/>
</symbol>
<symbol overflow="visible" id="glyph2-0">
<path style="stroke:none;" d="M 0.671875 2.390625 L 0.671875 -9.546875 L 7.453125 -9.546875 L 7.453125 2.390625 Z M 1.4375 1.640625 L 6.6875 1.640625 L 6.6875 -8.796875 L 1.4375 -8.796875 Z M 1.4375 1.640625 "/>
</symbol>
<symbol overflow="visible" id="glyph2-1">
<path style="stroke:none;" d="M 1.25 -9.875 L 8.109375 -9.875 L 8.109375 -7.953125 L 3.796875 -7.953125 L 3.796875 -6.109375 L 7.859375 -6.109375 L 7.859375 -4.1875 L 3.796875 -4.1875 L 3.796875 -1.921875 L 8.265625 -1.921875 L 8.265625 0 L 1.25 0 Z M 1.25 -9.875 "/>
</symbol>
<symbol overflow="visible" id="glyph2-2">
<path style="stroke:none;" d="M 3.015625 -3.796875 L 0.34375 -7.40625 L 2.84375 -7.40625 L 4.359375 -5.21875 L 5.890625 -7.40625 L 8.40625 -7.40625 L 5.734375 -3.796875 L 8.53125 0 L 6.03125 0 L 4.359375 -2.34375 L 2.71875 0 L 0.203125 0 Z M 3.015625 -3.796875 "/>
</symbol>
<symbol overflow="visible" id="glyph2-3">
<path style="stroke:none;" d="M 3.71875 -9.515625 L 3.71875 -7.40625 L 6.171875 -7.40625 L 6.171875 -5.71875 L 3.71875 -5.71875 L 3.71875 -2.578125 C 3.71875 -2.234375 3.785156 -2 3.921875 -1.875 C 4.066406 -1.75 4.34375 -1.6875 4.75 -1.6875 L 5.953125 -1.6875 L 5.953125 0 L 3.921875 0 C 2.992188 0 2.332031 -0.191406 1.9375 -0.578125 C 1.550781 -0.972656 1.359375 -1.640625 1.359375 -2.578125 L 1.359375 -5.71875 L 0.171875 -5.71875 L 0.171875 -7.40625 L 1.359375 -7.40625 L 1.359375 -9.515625 Z M 3.71875 -9.515625 "/>
</symbol>
<symbol overflow="visible" id="glyph2-4">
<path style="stroke:none;" d="M 6.640625 -5.390625 C 6.429688 -5.484375 6.222656 -5.550781 6.015625 -5.59375 C 5.816406 -5.644531 5.613281 -5.671875 5.40625 -5.671875 C 4.789062 -5.671875 4.316406 -5.472656 3.984375 -5.078125 C 3.660156 -4.691406 3.5 -4.132812 3.5 -3.40625 L 3.5 0 L 1.140625 0 L 1.140625 -7.40625 L 3.5 -7.40625 L 3.5 -6.1875 C 3.8125 -6.675781 4.160156 -7.03125 4.546875 -7.25 C 4.941406 -7.476562 5.414062 -7.59375 5.96875 -7.59375 C 6.050781 -7.59375 6.140625 -7.585938 6.234375 -7.578125 C 6.328125 -7.566406 6.460938 -7.550781 6.640625 -7.53125 Z M 6.640625 -5.390625 "/>
</symbol>
<symbol overflow="visible" id="glyph2-5">
<path style="stroke:none;" d="M 4.453125 -3.328125 C 3.960938 -3.328125 3.59375 -3.242188 3.34375 -3.078125 C 3.09375 -2.910156 2.96875 -2.664062 2.96875 -2.34375 C 2.96875 -2.039062 3.066406 -1.800781 3.265625 -1.625 C 3.472656 -1.457031 3.753906 -1.375 4.109375 -1.375 C 4.554688 -1.375 4.929688 -1.535156 5.234375 -1.859375 C 5.535156 -2.179688 5.6875 -2.582031 5.6875 -3.0625 L 5.6875 -3.328125 Z M 8.078125 -4.234375 L 8.078125 0 L 5.6875 0 L 5.6875 -1.09375 C 5.375 -0.644531 5.015625 -0.316406 4.609375 -0.109375 C 4.210938 0.0859375 3.734375 0.1875 3.171875 0.1875 C 2.398438 0.1875 1.773438 -0.0351562 1.296875 -0.484375 C 0.816406 -0.929688 0.578125 -1.507812 0.578125 -2.21875 C 0.578125 -3.09375 0.875 -3.734375 1.46875 -4.140625 C 2.070312 -4.546875 3.015625 -4.75 4.296875 -4.75 L 5.6875 -4.75 L 5.6875 -4.921875 C 5.6875 -5.296875 5.535156 -5.570312 5.234375 -5.75 C 4.941406 -5.925781 4.484375 -6.015625 3.859375 -6.015625 C 3.359375 -6.015625 2.890625 -5.960938 2.453125 -5.859375 C 2.015625 -5.753906 1.609375 -5.601562 1.234375 -5.40625 L 1.234375 -7.203125 C 1.734375 -7.328125 2.238281 -7.421875 2.75 -7.484375 C 3.269531 -7.554688 3.785156 -7.59375 4.296875 -7.59375 C 5.628906 -7.59375 6.59375 -7.328125 7.1875 -6.796875 C 7.78125 -6.265625 8.078125 -5.410156 8.078125 -4.234375 Z M 8.078125 -4.234375 "/>
</symbol>
<symbol overflow="visible" id="glyph2-6">
<path style="stroke:none;" d="M 7.125 -7.171875 L 7.125 -5.25 C 6.800781 -5.46875 6.476562 -5.628906 6.15625 -5.734375 C 5.832031 -5.835938 5.492188 -5.890625 5.140625 -5.890625 C 4.484375 -5.890625 3.96875 -5.695312 3.59375 -5.3125 C 3.226562 -4.925781 3.046875 -4.390625 3.046875 -3.703125 C 3.046875 -3.003906 3.226562 -2.460938 3.59375 -2.078125 C 3.96875 -1.691406 4.484375 -1.5 5.140625 -1.5 C 5.515625 -1.5 5.867188 -1.550781 6.203125 -1.65625 C 6.535156 -1.769531 6.84375 -1.9375 7.125 -2.15625 L 7.125 -0.21875 C 6.75 -0.0820312 6.367188 0.015625 5.984375 0.078125 C 5.609375 0.148438 5.226562 0.1875 4.84375 0.1875 C 3.507812 0.1875 2.460938 -0.148438 1.703125 -0.828125 C 0.953125 -1.515625 0.578125 -2.472656 0.578125 -3.703125 C 0.578125 -4.921875 0.953125 -5.875 1.703125 -6.5625 C 2.460938 -7.25 3.507812 -7.59375 4.84375 -7.59375 C 5.238281 -7.59375 5.625 -7.554688 6 -7.484375 C 6.375 -7.410156 6.75 -7.304688 7.125 -7.171875 Z M 7.125 -7.171875 "/>
</symbol>
<symbol overflow="visible" id="glyph2-7">
<path style="stroke:none;" d=""/>
</symbol>
<symbol overflow="visible" id="glyph2-8">
<path style="stroke:none;" d="M 6.015625 -10.296875 L 6.015625 -8.734375 L 4.703125 -8.734375 C 4.367188 -8.734375 4.132812 -8.671875 4 -8.546875 C 3.863281 -8.429688 3.796875 -8.222656 3.796875 -7.921875 L 3.796875 -7.40625 L 5.828125 -7.40625 L 5.828125 -5.71875 L 3.796875 -5.71875 L 3.796875 0 L 1.4375 0 L 1.4375 -5.71875 L 0.265625 -5.71875 L 0.265625 -7.40625 L 1.4375 -7.40625 L 1.4375 -7.921875 C 1.4375 -8.734375 1.660156 -9.332031 2.109375 -9.71875 C 2.554688 -10.101562 3.253906 -10.296875 4.203125 -10.296875 Z M 6.015625 -10.296875 "/>
</symbol>
<symbol overflow="visible" id="glyph2-9">
<path style="stroke:none;" d="M 4.65625 -5.890625 C 4.132812 -5.890625 3.734375 -5.703125 3.453125 -5.328125 C 3.179688 -4.953125 3.046875 -4.410156 3.046875 -3.703125 C 3.046875 -2.984375 3.179688 -2.4375 3.453125 -2.0625 C 3.734375 -1.6875 4.132812 -1.5 4.65625 -1.5 C 5.175781 -1.5 5.570312 -1.6875 5.84375 -2.0625 C 6.113281 -2.4375 6.25 -2.984375 6.25 -3.703125 C 6.25 -4.410156 6.113281 -4.953125 5.84375 -5.328125 C 5.570312 -5.703125 5.175781 -5.890625 4.65625 -5.890625 Z M 4.65625 -7.59375 C 5.9375 -7.59375 6.929688 -7.242188 7.640625 -6.546875 C 8.359375 -5.859375 8.71875 -4.910156 8.71875 -3.703125 C 8.71875 -2.484375 8.359375 -1.53125 7.640625 -0.84375 C 6.929688 -0.15625 5.9375 0.1875 4.65625 0.1875 C 3.382812 0.1875 2.382812 -0.15625 1.65625 -0.84375 C 0.9375 -1.53125 0.578125 -2.484375 0.578125 -3.703125 C 0.578125 -4.910156 0.9375 -5.859375 1.65625 -6.546875 C 2.382812 -7.242188 3.382812 -7.59375 4.65625 -7.59375 Z M 4.65625 -7.59375 "/>
</symbol>
<symbol overflow="visible" id="glyph2-10">
<path style="stroke:none;" d="M 8 -6.171875 C 8.300781 -6.628906 8.65625 -6.976562 9.0625 -7.21875 C 9.476562 -7.46875 9.9375 -7.59375 10.4375 -7.59375 C 11.28125 -7.59375 11.925781 -7.328125 12.375 -6.796875 C 12.820312 -6.273438 13.046875 -5.515625 13.046875 -4.515625 L 13.046875 0 L 10.65625 0 L 10.65625 -3.859375 C 10.664062 -3.921875 10.671875 -3.984375 10.671875 -4.046875 C 10.671875 -4.109375 10.671875 -4.195312 10.671875 -4.3125 C 10.671875 -4.832031 10.59375 -5.207031 10.4375 -5.4375 C 10.289062 -5.675781 10.046875 -5.796875 9.703125 -5.796875 C 9.242188 -5.796875 8.890625 -5.609375 8.640625 -5.234375 C 8.398438 -4.867188 8.28125 -4.335938 8.28125 -3.640625 L 8.28125 0 L 5.890625 0 L 5.890625 -3.859375 C 5.890625 -4.679688 5.816406 -5.207031 5.671875 -5.4375 C 5.535156 -5.675781 5.285156 -5.796875 4.921875 -5.796875 C 4.472656 -5.796875 4.125 -5.609375 3.875 -5.234375 C 3.625 -4.867188 3.5 -4.335938 3.5 -3.640625 L 3.5 0 L 1.125 0 L 1.125 -7.40625 L 3.5 -7.40625 L 3.5 -6.328125 C 3.789062 -6.742188 4.125 -7.054688 4.5 -7.265625 C 4.882812 -7.484375 5.300781 -7.59375 5.75 -7.59375 C 6.257812 -7.59375 6.710938 -7.46875 7.109375 -7.21875 C 7.503906 -6.96875 7.800781 -6.617188 8 -6.171875 Z M 8 -6.171875 "/>
</symbol>
<symbol overflow="visible" id="glyph2-11">
<path style="stroke:none;" d="M 1.25 -9.875 L 5.46875 -9.875 C 6.726562 -9.875 7.691406 -9.59375 8.359375 -9.03125 C 9.035156 -8.476562 9.375 -7.6875 9.375 -6.65625 C 9.375 -5.613281 9.035156 -4.8125 8.359375 -4.25 C 7.691406 -3.695312 6.726562 -3.421875 5.46875 -3.421875 L 3.796875 -3.421875 L 3.796875 0 L 1.25 0 Z M 3.796875 -8.03125 L 3.796875 -5.265625 L 5.203125 -5.265625 C 5.691406 -5.265625 6.070312 -5.382812 6.34375 -5.625 C 6.613281 -5.875 6.75 -6.21875 6.75 -6.65625 C 6.75 -7.09375 6.613281 -7.429688 6.34375 -7.671875 C 6.070312 -7.910156 5.691406 -8.03125 5.203125 -8.03125 Z M 3.796875 -8.03125 "/>
</symbol>
<symbol overflow="visible" id="glyph2-12">
<path style="stroke:none;" d="M 1.140625 -7.40625 L 3.5 -7.40625 L 3.5 0 L 1.140625 0 Z M 1.140625 -10.296875 L 3.5 -10.296875 L 3.5 -8.359375 L 1.140625 -8.359375 Z M 1.140625 -10.296875 "/>
</symbol>
<symbol overflow="visible" id="glyph2-13">
<path style="stroke:none;" d="M 1.140625 -10.296875 L 3.5 -10.296875 L 3.5 0 L 1.140625 0 Z M 1.140625 -10.296875 "/>
</symbol>
<symbol overflow="visible" id="glyph2-14">
<path style="stroke:none;" d="M 8.578125 -4.515625 L 8.578125 0 L 6.203125 0 L 6.203125 -3.453125 C 6.203125 -4.085938 6.1875 -4.523438 6.15625 -4.765625 C 6.132812 -5.015625 6.085938 -5.195312 6.015625 -5.3125 C 5.921875 -5.46875 5.789062 -5.585938 5.625 -5.671875 C 5.46875 -5.753906 5.289062 -5.796875 5.09375 -5.796875 C 4.601562 -5.796875 4.210938 -5.601562 3.921875 -5.21875 C 3.640625 -4.84375 3.5 -4.316406 3.5 -3.640625 L 3.5 0 L 1.140625 0 L 1.140625 -7.40625 L 3.5 -7.40625 L 3.5 -6.328125 C 3.863281 -6.753906 4.242188 -7.070312 4.640625 -7.28125 C 5.046875 -7.488281 5.488281 -7.59375 5.96875 -7.59375 C 6.820312 -7.59375 7.46875 -7.328125 7.90625 -6.796875 C 8.351562 -6.273438 8.578125 -5.515625 8.578125 -4.515625 Z M 8.578125 -4.515625 "/>
</symbol>
<symbol overflow="visible" id="glyph2-15">
<path style="stroke:none;" d="M 6.921875 -7.171875 L 6.921875 -5.375 C 6.421875 -5.582031 5.929688 -5.738281 5.453125 -5.84375 C 4.984375 -5.957031 4.539062 -6.015625 4.125 -6.015625 C 3.675781 -6.015625 3.34375 -5.957031 3.125 -5.84375 C 2.90625 -5.726562 2.796875 -5.554688 2.796875 -5.328125 C 2.796875 -5.140625 2.875 -4.992188 3.03125 -4.890625 C 3.195312 -4.785156 3.492188 -4.707031 3.921875 -4.65625 L 4.34375 -4.609375 C 5.5625 -4.453125 6.378906 -4.195312 6.796875 -3.84375 C 7.210938 -3.488281 7.421875 -2.9375 7.421875 -2.1875 C 7.421875 -1.394531 7.128906 -0.800781 6.546875 -0.40625 C 5.960938 -0.0078125 5.09375 0.1875 3.9375 0.1875 C 3.445312 0.1875 2.941406 0.144531 2.421875 0.0625 C 1.898438 -0.0078125 1.363281 -0.117188 0.8125 -0.265625 L 0.8125 -2.078125 C 1.28125 -1.835938 1.765625 -1.660156 2.265625 -1.546875 C 2.765625 -1.429688 3.269531 -1.375 3.78125 -1.375 C 4.238281 -1.375 4.582031 -1.4375 4.8125 -1.5625 C 5.050781 -1.695312 5.171875 -1.890625 5.171875 -2.140625 C 5.171875 -2.347656 5.085938 -2.503906 4.921875 -2.609375 C 4.765625 -2.710938 4.445312 -2.796875 3.96875 -2.859375 L 3.546875 -2.90625 C 2.492188 -3.039062 1.753906 -3.285156 1.328125 -3.640625 C 0.910156 -4.003906 0.703125 -4.546875 0.703125 -5.265625 C 0.703125 -6.054688 0.96875 -6.640625 1.5 -7.015625 C 2.039062 -7.398438 2.867188 -7.59375 3.984375 -7.59375 C 4.421875 -7.59375 4.878906 -7.554688 5.359375 -7.484375 C 5.835938 -7.421875 6.359375 -7.316406 6.921875 -7.171875 Z M 6.921875 -7.171875 "/>
</symbol>
<symbol overflow="visible" id="glyph2-16">
<path style="stroke:none;" d="M 1.25 -9.875 L 3.796875 -9.875 L 3.796875 -1.921875 L 8.265625 -1.921875 L 8.265625 0 L 1.25 0 Z M 1.25 -9.875 "/>
</symbol>
<symbol overflow="visible" id="glyph2-17">
<path style="stroke:none;" d="M 6.171875 -6.328125 L 6.171875 -10.296875 L 8.5625 -10.296875 L 8.5625 0 L 6.171875 0 L 6.171875 -1.078125 C 5.847656 -0.640625 5.488281 -0.316406 5.09375 -0.109375 C 4.707031 0.0859375 4.253906 0.1875 3.734375 0.1875 C 2.828125 0.1875 2.078125 -0.171875 1.484375 -0.890625 C 0.898438 -1.617188 0.609375 -2.554688 0.609375 -3.703125 C 0.609375 -4.835938 0.898438 -5.769531 1.484375 -6.5 C 2.078125 -7.226562 2.828125 -7.59375 3.734375 -7.59375 C 4.242188 -7.59375 4.695312 -7.488281 5.09375 -7.28125 C 5.488281 -7.070312 5.847656 -6.753906 6.171875 -6.328125 Z M 4.609375 -1.53125 C 5.117188 -1.53125 5.503906 -1.710938 5.765625 -2.078125 C 6.035156 -2.453125 6.171875 -2.992188 6.171875 -3.703125 C 6.171875 -4.398438 6.035156 -4.9375 5.765625 -5.3125 C 5.503906 -5.6875 5.117188 -5.875 4.609375 -5.875 C 4.109375 -5.875 3.722656 -5.6875 3.453125 -5.3125 C 3.191406 -4.9375 3.0625 -4.398438 3.0625 -3.703125 C 3.0625 -2.992188 3.191406 -2.453125 3.453125 -2.078125 C 3.722656 -1.710938 4.109375 -1.53125 4.609375 -1.53125 Z M 4.609375 -1.53125 "/>
</symbol>
<symbol overflow="visible" id="glyph2-18">
<path style="stroke:none;" d="M 0.0625 -9.875 L 9.171875 -9.875 L 9.171875 -7.953125 L 5.890625 -7.953125 L 5.890625 0 L 3.34375 0 L 3.34375 -7.953125 L 0.0625 -7.953125 Z M 0.0625 -9.875 "/>
</symbol>
<symbol overflow="visible" id="glyph2-19">
<path style="stroke:none;" d="M 8.53125 -3.71875 L 8.53125 -3.046875 L 3 -3.046875 C 3.050781 -2.492188 3.25 -2.078125 3.59375 -1.796875 C 3.9375 -1.515625 4.421875 -1.375 5.046875 -1.375 C 5.535156 -1.375 6.039062 -1.445312 6.5625 -1.59375 C 7.09375 -1.75 7.632812 -1.976562 8.1875 -2.28125 L 8.1875 -0.453125 C 7.625 -0.234375 7.0625 -0.0703125 6.5 0.03125 C 5.9375 0.132812 5.378906 0.1875 4.828125 0.1875 C 3.484375 0.1875 2.4375 -0.148438 1.6875 -0.828125 C 0.945312 -1.515625 0.578125 -2.472656 0.578125 -3.703125 C 0.578125 -4.910156 0.941406 -5.859375 1.671875 -6.546875 C 2.398438 -7.242188 3.40625 -7.59375 4.6875 -7.59375 C 5.851562 -7.59375 6.785156 -7.238281 7.484375 -6.53125 C 8.179688 -5.832031 8.53125 -4.894531 8.53125 -3.71875 Z M 6.09375 -4.515625 C 6.09375 -4.960938 5.960938 -5.320312 5.703125 -5.59375 C 5.441406 -5.875 5.097656 -6.015625 4.671875 -6.015625 C 4.210938 -6.015625 3.835938 -5.882812 3.546875 -5.625 C 3.265625 -5.363281 3.085938 -4.992188 3.015625 -4.515625 Z M 6.09375 -4.515625 "/>
</symbol>
</g>
</defs>
<g id="surface6513">
<rect x="0" y="0" width="843" height="303" style="fill:rgb(100%,100%,100%);fill-opacity:1;stroke:none;"/>
<path style="fill-rule:evenodd;fill:rgb(100%,100%,100%);fill-opacity:1;stroke-width:0.1;stroke-linecap:butt;stroke-linejoin:miter;stroke:rgb(98.823529%,96.862745%,96.862745%);stroke-opacity:1;stroke-miterlimit:10;" d="M 6 3 L 48 3 L 48 18 L 6 18 Z M 6 3 " transform="matrix(20,0,0,20,-118,-58)"/>
<path style="fill-rule:evenodd;fill:rgb(100%,100%,100%);fill-opacity:1;stroke-width:0.25;stroke-linecap:butt;stroke-linejoin:miter;stroke:rgb(0%,0%,0%);stroke-opacity:1;stroke-dasharray:0.5,0.5;stroke-miterlimit:10;" d="M 9 11.5 C 10.2 11.125 10.8 11 12 11 C 13.2 11 13.8 11.125 15 11.5 L 15 13.5 C 13.8 13.875 13.2 14 12 14 C 10.8 14 10.2 13.875 9 13.5 Z M 9 11.5 " transform="matrix(20,0,0,20,-118,-58)"/>
<path style="fill:none;stroke-width:0.25;stroke-linecap:butt;stroke-linejoin:miter;stroke:rgb(0%,0%,0%);stroke-opacity:1;stroke-dasharray:0.5,0.5;stroke-miterlimit:10;" d="M 9 11.5 C 10.2 11.875 10.8 12 12 12 C 13.2 12 13.8 11.875 15 11.5 " transform="matrix(20,0,0,20,-118,-58)"/>
<g style="fill:rgb(0%,0%,0%);fill-opacity:1;">
  <use xlink:href="#glyph0-1" x="91.179688" y="201.795139"/>
  <use xlink:href="#glyph0-2" x="102.568576" y="201.795139"/>
  <use xlink:href="#glyph0-3" x="113.40191" y="201.795139"/>
  <use xlink:href="#glyph0-4" x="124.790799" y="201.795139"/>
  <use xlink:href="#glyph0-5" x="132.568576" y="201.795139"/>
  <use xlink:href="#glyph0-6" x="142.013021" y="201.795139"/>
</g>
<path style="fill-rule:evenodd;fill:rgb(100%,100%,100%);fill-opacity:1;stroke-width:0.25;stroke-linecap:butt;stroke-linejoin:miter;stroke:rgb(0%,0%,0%);stroke-opacity:1;stroke-miterlimit:10;" d="M 19.1 11 C 19.044727 11 19 11.044727 19 11.1 L 19 13.9 C 19 13.955273 19.044727 14 19.1 14 L 24.909961 14 C 24.965234 14 25.009961 13.955273 25.009961 13.9 L 25.009961 11.1 C 25.009961 11.044727 24.965234 11 24.909961 11 Z M 19.1 11 " transform="matrix(20,0,0,20,-118,-58)"/>
<g style="fill:rgb(0%,0%,0%);fill-opacity:1;">
  <use xlink:href="#glyph0-7" x="284.328125" y="196.795139"/>
  <use xlink:href="#glyph0-8" x="296.272569" y="196.795139"/>
  <use xlink:href="#glyph0-5" x="306.828125" y="196.795139"/>
  <use xlink:href="#glyph0-9" x="316.272569" y="196.795139"/>
  <use xlink:href="#glyph0-6" x="326.272569" y="196.795139"/>
  <use xlink:href="#glyph0-10" x="337.105903" y="196.795139"/>
  <use xlink:href="#glyph0-11" x="348.494792" y="196.795139"/>
</g>
<path style="fill-rule:evenodd;fill:rgb(100%,100%,100%);fill-opacity:1;stroke-width:0.25;stroke-linecap:butt;stroke-linejoin:miter;stroke:rgb(0%,0%,0%);stroke-opacity:1;stroke-miterlimit:10;" d="M 29 11.5 C 30.2 11.125 30.8 11 32 11 C 33.2 11 33.8 11.125 35 11.5 L 35 13.5 C 33.8 13.875 33.2 14 32 14 C 30.8 14 30.2 13.875 29 13.5 Z M 29 11.5 " transform="matrix(20,0,0,20,-118,-58)"/>
<path style="fill:none;stroke-width:0.25;stroke-linecap:butt;stroke-linejoin:miter;stroke:rgb(0%,0%,0%);stroke-opacity:1;stroke-miterlimit:10;" d="M 29 11.5 C 30.2 11.875 30.8 12 32 12 C 33.2 12 33.8 11.875 35 11.5 " transform="matrix(20,0,0,20,-118,-58)"/>
<g style="fill:rgb(0%,0%,0%);fill-opacity:1;">
  <use xlink:href="#glyph0-12" x="480.066406" y="201.795139"/>
  <use xlink:href="#glyph0-8" x="493.121962" y="201.795139"/>
  <use xlink:href="#glyph0-13" x="503.677517" y="201.795139"/>
  <use xlink:href="#glyph0-8" x="511.177517" y="201.795139"/>
  <use xlink:href="#glyph0-14" x="521.733073" y="201.795139"/>
  <use xlink:href="#glyph0-8" x="533.121962" y="201.795139"/>
  <use xlink:href="#glyph0-15" x="543.677517" y="201.795139"/>
  <use xlink:href="#glyph0-6" x="553.121962" y="201.795139"/>
</g>
<path style="fill:none;stroke-width:0.25;stroke-linecap:butt;stroke-linejoin:miter;stroke:rgb(0%,0%,0%);stroke-opacity:1;stroke-miterlimit:10;" d="M 15.124805 12.5 L 18.220898 12.5 " transform="matrix(20,0,0,20,-118,-58)"/>
<path style="fill-rule:evenodd;fill:rgb(0%,0%,0%);fill-opacity:1;stroke-width:0.25;stroke-linecap:butt;stroke-linejoin:miter;stroke:rgb(0%,0%,0%);stroke-opacity:1;stroke-miterlimit:10;" d="M 18.595898 12.5 L 18.095898 12.75 L 18.220898 12.5 L 18.095898 12.25 Z M 18.595898 12.5 " transform="matrix(20,0,0,20,-118,-58)"/>
<path style="fill:none;stroke-width:0.25;stroke-linecap:butt;stroke-linejoin:miter;stroke:rgb(0%,0%,0%);stroke-opacity:1;stroke-miterlimit:10;" d="M 25.13457 12.5 L 28.220898 12.5 " transform="matrix(20,0,0,20,-118,-58)"/>
<path style="fill-rule:evenodd;fill:rgb(0%,0%,0%);fill-opacity:1;stroke-width:0.25;stroke-linecap:butt;stroke-linejoin:miter;stroke:rgb(0%,0%,0%);stroke-opacity:1;stroke-miterlimit:10;" d="M 28.595898 12.5 L 28.095898 12.75 L 28.220898 12.5 L 28.095898 12.25 Z M 28.595898 12.5 " transform="matrix(20,0,0,20,-118,-58)"/>
<g style="fill:rgb(0%,0%,0%);fill-opacity:1;">
  <use xlink:href="#glyph1-1" x="96.316406" y="130.152995"/>
</g>
<g style="fill:rgb(0%,0%,0%);fill-opacity:1;">
  <use xlink:href="#glyph1-2" x="306.042969" y="130.152995"/>
</g>
<g style="fill:rgb(0%,0%,0%);fill-opacity:1;">
  <use xlink:href="#glyph1-3" x="499.363281" y="130.152995"/>
</g>
<g style="fill:rgb(0%,0%,0%);fill-opacity:1;">
  <use xlink:href="#glyph1-4" x="697.15625" y="130.152995"/>
</g>
<path style="fill-rule:evenodd;fill:rgb(100%,100%,100%);fill-opacity:1;stroke-width:0.25;stroke-linecap:butt;stroke-linejoin:miter;stroke:rgb(0%,0%,0%);stroke-opacity:1;stroke-miterlimit:10;" d="M 39.1 11 C 39.044727 11 39 11.044727 39 11.1 L 39 13.9 C 39 13.955273 39.044727 14 39.1 14 L 44.909961 14 C 44.965234 14 45.009961 13.955273 45.009961 13.9 L 45.009961 11.1 C 45.009961 11.044727 44.965234 11 44.909961 11 Z M 39.1 11 " transform="matrix(20,0,0,20,-118,-58)"/>
<g style="fill:rgb(0%,0%,0%);fill-opacity:1;">
  <use xlink:href="#glyph0-7" x="684.328125" y="196.795139"/>
  <use xlink:href="#glyph0-8" x="696.272569" y="196.795139"/>
  <use xlink:href="#glyph0-5" x="706.828125" y="196.795139"/>
  <use xlink:href="#glyph0-9" x="716.272569" y="196.795139"/>
  <use xlink:href="#glyph0-6" x="726.272569" y="196.795139"/>
  <use xlink:href="#glyph0-10" x="737.105903" y="196.795139"/>
  <use xlink:href="#glyph0-11" x="748.494792" y="196.795139"/>
</g>
<path style="fill:none;stroke-width:0.25;stroke-linecap:butt;stroke-linejoin:miter;stroke:rgb(0%,0%,0%);stroke-opacity:1;stroke-miterlimit:10;" d="M 35.124805 12.5 L 38.220898 12.5 " transform="matrix(20,0,0,20,-118,-58)"/>
<path style="fill-rule:evenodd;fill:rgb(0%,0%,0%);fill-opacity:1;stroke-width:0.25;stroke-linecap:butt;stroke-linejoin:miter;stroke:rgb(0%,0%,0%);stroke-opacity:1;stroke-miterlimit:10;" d="M 38.595898 12.5 L 38.095898 12.75 L 38.220898 12.5 L 38.095898 12.25 Z M 38.595898 12.5 " transform="matrix(20,0,0,20,-118,-58)"/>
<g style="fill:rgb(0%,0%,0%);fill-opacity:1;">
  <use xlink:href="#glyph2-1" x="74.363281" y="246.508192"/>
  <use xlink:href="#glyph2-2" x="83.529948" y="246.508192"/>
  <use xlink:href="#glyph2-3" x="92.141059" y="246.508192"/>
  <use xlink:href="#glyph2-4" x="98.529948" y="246.508192"/>
  <use xlink:href="#glyph2-5" x="105.196615" y="246.508192"/>
  <use xlink:href="#glyph2-6" x="114.363281" y="246.508192"/>
  <use xlink:href="#glyph2-3" x="122.418837" y="246.508192"/>
  <use xlink:href="#glyph2-7" x="128.807726" y="246.508192"/>
  <use xlink:href="#glyph2-8" x="133.529948" y="246.508192"/>
  <use xlink:href="#glyph2-4" x="139.363281" y="246.508192"/>
  <use xlink:href="#glyph2-9" x="146.029948" y="246.508192"/>
  <use xlink:href="#glyph2-10" x="155.474392" y="246.508192"/>
</g>
<g style="fill:rgb(0%,0%,0%);fill-opacity:1;">
  <use xlink:href="#glyph2-11" x="256.453125" y="246.707411"/>
  <use xlink:href="#glyph2-5" x="265.897569" y="246.707411"/>
  <use xlink:href="#glyph2-4" x="275.064236" y="246.707411"/>
  <use xlink:href="#glyph2-3" x="281.730903" y="246.707411"/>
  <use xlink:href="#glyph2-12" x="288.119792" y="246.707411"/>
  <use xlink:href="#glyph2-5" x="292.842014" y="246.707411"/>
  <use xlink:href="#glyph2-13" x="302.008681" y="246.707411"/>
  <use xlink:href="#glyph2-7" x="306.730903" y="246.707411"/>
  <use xlink:href="#glyph2-3" x="311.453125" y="246.707411"/>
  <use xlink:href="#glyph2-4" x="317.842014" y="246.707411"/>
  <use xlink:href="#glyph2-5" x="324.508681" y="246.707411"/>
  <use xlink:href="#glyph2-14" x="333.675347" y="246.707411"/>
  <use xlink:href="#glyph2-15" x="343.397569" y="246.707411"/>
  <use xlink:href="#glyph2-8" x="351.453125" y="246.707411"/>
  <use xlink:href="#glyph2-9" x="357.286458" y="246.707411"/>
  <use xlink:href="#glyph2-4" x="366.730903" y="246.707411"/>
  <use xlink:href="#glyph2-10" x="373.397569" y="246.707411"/>
</g>
<g style="fill:rgb(0%,0%,0%);fill-opacity:1;">
  <use xlink:href="#glyph2-16" x="448.953125" y="246.508192"/>
  <use xlink:href="#glyph2-9" x="457.564236" y="246.508192"/>
  <use xlink:href="#glyph2-5" x="467.008681" y="246.508192"/>
  <use xlink:href="#glyph2-17" x="476.175347" y="246.508192"/>
  <use xlink:href="#glyph2-7" x="485.897569" y="246.508192"/>
  <use xlink:href="#glyph2-12" x="490.619792" y="246.508192"/>
  <use xlink:href="#glyph2-14" x="495.342014" y="246.508192"/>
  <use xlink:href="#glyph2-3" x="505.064236" y="246.508192"/>
  <use xlink:href="#glyph2-9" x="511.453125" y="246.508192"/>
  <use xlink:href="#glyph2-7" x="520.897569" y="246.508192"/>
  <use xlink:href="#glyph2-5" x="525.619792" y="246.508192"/>
  <use xlink:href="#glyph2-14" x="534.786458" y="246.508192"/>
  <use xlink:href="#glyph2-17" x="544.508681" y="246.508192"/>
  <use xlink:href="#glyph2-7" x="554.230903" y="246.508192"/>
  <use xlink:href="#glyph2-8" x="558.953125" y="246.508192"/>
  <use xlink:href="#glyph2-4" x="564.786458" y="246.508192"/>
  <use xlink:href="#glyph2-9" x="571.453125" y="246.508192"/>
  <use xlink:href="#glyph2-10" x="580.897569" y="246.508192"/>
</g>
<g style="fill:rgb(0%,0%,0%);fill-opacity:1;">
  <use xlink:href="#glyph2-18" x="638.113281" y="246.707411"/>
  <use xlink:href="#glyph2-4" x="645.891059" y="246.707411"/>
  <use xlink:href="#glyph2-5" x="652.557726" y="246.707411"/>
  <use xlink:href="#glyph2-14" x="661.724392" y="246.707411"/>
  <use xlink:href="#glyph2-15" x="671.446615" y="246.707411"/>
  <use xlink:href="#glyph2-8" x="679.50217" y="246.707411"/>
  <use xlink:href="#glyph2-9" x="685.335503" y="246.707411"/>
  <use xlink:href="#glyph2-4" x="694.779948" y="246.707411"/>
  <use xlink:href="#glyph2-10" x="701.446615" y="246.707411"/>
  <use xlink:href="#glyph2-7" x="715.613281" y="246.707411"/>
  <use xlink:href="#glyph2-9" x="720.335503" y="246.707411"/>
  <use xlink:href="#glyph2-14" x="729.779948" y="246.707411"/>
  <use xlink:href="#glyph2-7" x="739.50217" y="246.707411"/>
  <use xlink:href="#glyph2-17" x="744.224392" y="246.707411"/>
  <use xlink:href="#glyph2-19" x="753.946615" y="246.707411"/>
  <use xlink:href="#glyph2-10" x="763.113281" y="246.707411"/>
  <use xlink:href="#glyph2-5" x="777.279948" y="246.707411"/>
  <use xlink:href="#glyph2-14" x="786.446615" y="246.707411"/>
  <use xlink:href="#glyph2-17" x="796.168837" y="246.707411"/>
</g>
<g style="fill:rgb(0%,0%,0%);fill-opacity:1;">
  <use xlink:href="#glyph0-16" x="293.816406" y="27.474826"/>
  <use xlink:href="#glyph0-10" x="299.64974" y="27.474826"/>
  <use xlink:href="#glyph0-17" x="311.038628" y="27.474826"/>
  <use xlink:href="#glyph0-6" x="322.427517" y="27.474826"/>
  <use xlink:href="#glyph0-15" x="333.260851" y="27.474826"/>
  <use xlink:href="#glyph0-13" x="342.705295" y="27.474826"/>
</g>
<g style="fill:rgb(0%,0%,0%);fill-opacity:1;">
  <use xlink:href="#glyph0-18" x="599.5" y="287.474826"/>
  <use xlink:href="#glyph0-6" x="611.722222" y="287.474826"/>
  <use xlink:href="#glyph0-8" x="622.555556" y="287.474826"/>
  <use xlink:href="#glyph0-11" x="633.111111" y="287.474826"/>
</g>
<path style="fill:none;stroke-width:0.15;stroke-linecap:butt;stroke-linejoin:miter;stroke:rgb(0%,0%,0%);stroke-opacity:1;stroke-miterlimit:10;" d="M 36 5 L 7 5 " transform="matrix(20,0,0,20,-118,-58)"/>
<path style="fill:none;stroke-width:0.15;stroke-linecap:butt;stroke-linejoin:miter;stroke:rgb(0%,0%,0%);stroke-opacity:1;stroke-miterlimit:10;" d="M 27 16 L 47 16 " transform="matrix(20,0,0,20,-118,-58)"/>
<path style="fill:none;stroke-width:0.15;stroke-linecap:butt;stroke-linejoin:miter;stroke:rgb(0%,0%,0%);stroke-opacity:1;stroke-miterlimit:10;" d="M 7 5 L 7 7 " transform="matrix(20,0,0,20,-118,-58)"/>
<path style="fill:none;stroke-width:0.15;stroke-linecap:butt;stroke-linejoin:miter;stroke:rgb(0%,0%,0%);stroke-opacity:1;stroke-miterlimit:10;" d="M 36 5 L 36 7 " transform="matrix(20,0,0,20,-118,-58)"/>
<path style="fill:none;stroke-width:0.15;stroke-linecap:butt;stroke-linejoin:miter;stroke:rgb(0%,0%,0%);stroke-opacity:1;stroke-miterlimit:10;" d="M 27 14 L 27 16 " transform="matrix(20,0,0,20,-118,-58)"/>
<path style="fill:none;stroke-width:0.15;stroke-linecap:butt;stroke-linejoin:miter;stroke:rgb(0%,0%,0%);stroke-opacity:1;stroke-miterlimit:10;" d="M 47 14 L 47 16 " transform="matrix(20,0,0,20,-118,-58)"/>
</g>
</svg>
