<?xml version="1.0" encoding="us-ascii" standalone="no"?><svg xmlns="http://www.w3.org/2000/svg" xmlns:xlink="http://www.w3.org/1999/xlink" contentStyleType="text/css" height="206px" preserveAspectRatio="none" style="width:340px;height:206px;background:#FFFFFF;" version="1.1" viewBox="0 0 340 206" width="340px" zoomAndPan="magnify"><defs/><g><!--cluster ctr_fe--><g id="cluster_ctr_fe"><rect fill="none" height="193.59" rx="2.5" ry="2.5" style="stroke:#181818;stroke-width:1.0;" width="326" x="7" y="7"/><line style="stroke:#181818;stroke-width:1.0;" x1="7" x2="333" y1="27.2969" y2="27.2969"/><text fill="#000000" font-family="sans-serif" font-size="14" font-weight="bold" lengthAdjust="spacing" textLength="114" x="113" y="21.9951">CTR: Frontend</text></g><!--entity fe--><g id="elem_fe"><rect fill="#F1F1F1" height="46.2969" rx="2.5" ry="2.5" style="stroke:#181818;stroke-width:0.5;" width="96" x="124" y="42"/><path d="M156,42 L156,47 L149,54 L124,54 " fill="none" style="stroke:#181818;stroke-width:0.5;"/><text fill="#000000" font-family="sans-serif" font-size="14" lengthAdjust="spacing" textLength="56" x="139" y="74.9951">Lowdefy</text></g><!--entity fe0--><g id="elem_fe0"><rect fill="#F1F1F1" height="32.2969" rx="2.5" ry="2.5" style="stroke:#181818;stroke-width:0.5;" width="63" x="27.5" y="152.29"/><rect fill="#F1F1F1" height="32.2969" rx="2.5" ry="2.5" style="stroke:#181818;stroke-width:0.5;" width="63" x="23.5" y="148.29"/><text fill="#000000" font-family="sans-serif" font-size="14" lengthAdjust="spacing" textLength="47" x="31.5" y="169.2851">Assets</text></g><!--entity fe1--><g id="elem_fe1"><rect fill="#F1F1F1" height="32.2969" rx="2.5" ry="2.5" style="stroke:#181818;stroke-width:0.5;" width="89" x="129.5" y="152.29"/><rect fill="#F1F1F1" height="32.2969" rx="2.5" ry="2.5" style="stroke:#181818;stroke-width:0.5;" width="89" x="125.5" y="148.29"/><text fill="#000000" font-family="sans-serif" font-size="14" lengthAdjust="spacing" textLength="73" x="133.5" y="169.2851">Templates</text></g><!--entity fe2--><g id="elem_fe2"><rect fill="#F1F1F1" height="32.2969" rx="2.5" ry="2.5" style="stroke:#181818;stroke-width:0.5;" width="59" x="257.5" y="152.29"/><rect fill="#F1F1F1" height="32.2969" rx="2.5" ry="2.5" style="stroke:#181818;stroke-width:0.5;" width="59" x="253.5" y="148.29"/><text fill="#000000" font-family="sans-serif" font-size="14" lengthAdjust="spacing" textLength="43" x="261.5" y="169.2851">Pages</text></g><!--link fe to fe0--><g id="link_fe_fe0"><path d="M145.9,88.68 C125.1,106.64 102.4254,126.222 83.3254,142.712 " fill="none" id="fe-to-fe0" style="stroke:#181818;stroke-width:1.0;"/><polygon fill="#181818" points="77.27,147.94,85.2859,144.9828,81.365,140.4412,77.27,147.94" style="stroke:#181818;stroke-width:1.0;"/></g><!--link fe to fe1--><g id="link_fe_fe1"><path d="M172,88.68 C172,106.64 172,123.45 172,139.94 " fill="none" id="fe-to-fe1" style="stroke:#181818;stroke-width:1.0;"/><polygon fill="#181818" points="172,147.94,175,139.94,169,139.94,172,147.94" style="stroke:#181818;stroke-width:1.0;"/></g><!--link fe to fe2--><g id="link_fe_fe2"><path d="M197.64,88.68 C218.09,106.64 240.2999,126.17 259.0699,142.66 " fill="none" id="fe-to-fe2" style="stroke:#181818;stroke-width:1.0;"/><polygon fill="#181818" points="265.08,147.94,261.0499,140.4062,257.0899,144.9137,265.08,147.94" style="stroke:#181818;stroke-width:1.0;"/></g><!--SRC=[IquiIb58BYcAJqjLI2nMK78E2R9IS2lApoj9pKjHKgZcKb18AqhCJLM0ollabwUafbKg0SMJytDoKfDBClFpYe6o1c1fn-BYr99YJ5b3i6n8Qcv1Jc99AXO5Hc050Odf8CbQBYwWTRgwTdOWWv7OXaXi8m00]--></g></svg>