<?xml version="1.0" encoding="us-ascii" standalone="no"?><svg xmlns="http://www.w3.org/2000/svg" xmlns:xlink="http://www.w3.org/1999/xlink" contentStyleType="text/css" height="370px" preserveAspectRatio="none" style="width:319px;height:370px;background:#FFFFFF;" version="1.1" viewBox="0 0 319 370" width="319px" zoomAndPan="magnify"><defs/><g><!--entity endpoint--><g id="elem_endpoint"><ellipse cx="66.5" cy="14" fill="#F1F1F1" rx="8" ry="8" style="stroke:#181818;stroke-width:0.5;"/><text fill="#000000" font-family="sans-serif" font-size="14" lengthAdjust="spacing" textLength="62" x="35.5" y="43.9951">Endpoint</text></g><!--entity backend--><g id="elem_backend"><polygon fill="#F1F1F1" points="16,130,26,120,117,120,117,188.8906,107,198.8906,16,198.8906,16,130" style="stroke:#181818;stroke-width:0.5;"/><line style="stroke:#181818;stroke-width:0.5;" x1="107" x2="117" y1="130" y2="120"/><line style="stroke:#181818;stroke-width:0.5;" x1="16" x2="107" y1="130" y2="130"/><line style="stroke:#181818;stroke-width:0.5;" x1="107" x2="107" y1="130" y2="198.8906"/><text fill="#000000" font-family="sans-serif" font-size="14" lengthAdjust="spacing" textLength="4" x="31" y="152.9951">&#160;</text><text fill="#000000" font-family="sans-serif" font-size="14" lengthAdjust="spacing" textLength="61" x="31" y="169.292">Backend</text><text fill="#000000" font-family="sans-serif" font-size="14" lengthAdjust="spacing" textLength="4" x="31" y="185.5889">&#160;</text></g><!--entity database--><g id="elem_database"><path d="M23.5,285.89 C23.5,275.89 66.5,275.89 66.5,275.89 C66.5,275.89 109.5,275.89 109.5,285.89 L109.5,343.7806 C109.5,353.7806 66.5,353.7806 66.5,353.7806 C66.5,353.7806 23.5,353.7806 23.5,343.7806 L23.5,285.89 " fill="#F1F1F1" style="stroke:#181818;stroke-width:0.5;"/><path d="M23.5,285.89 C23.5,295.89 66.5,295.89 66.5,295.89 C66.5,295.89 109.5,295.89 109.5,285.89 " fill="none" style="stroke:#181818;stroke-width:0.5;"/><text fill="#000000" font-family="sans-serif" font-size="14" lengthAdjust="spacing" textLength="4" x="33.5" y="312.8851">&#160;</text><text fill="#000000" font-family="sans-serif" font-size="14" lengthAdjust="spacing" textLength="66" x="33.5" y="329.182">Database</text><text fill="#000000" font-family="sans-serif" font-size="14" lengthAdjust="spacing" textLength="4" x="33.5" y="345.4789">&#160;</text></g><!--link endpoint to backend--><g id="link_endpoint_backend"><path d="M66.5,30.71 C66.5,48.63 66.5,78.11 66.5,111.51 " fill="none" id="endpoint-backend" style="stroke:#181818;stroke-width:1.0;"/><polygon fill="#181818" points="66.5,22.71,63.5,30.71,69.5,30.71,66.5,22.71" style="stroke:#181818;stroke-width:1.0;"/><polygon fill="#181818" points="66.5,119.51,69.5,111.51,63.5,111.51,66.5,119.51" style="stroke:#181818;stroke-width:1.0;"/><text fill="#000000" font-family="sans-serif" font-size="13" lengthAdjust="spacing" textLength="87" x="71.5" y="86.0669">HTTP Server (</text><text fill="#000000" font-family="sans-serif" font-size="13" font-weight="bold" lengthAdjust="spacing" textLength="101" x="158.5" y="86.0669">/api/v1/health</text><text fill="#000000" font-family="sans-serif" font-size="13" lengthAdjust="spacing" textLength="5" x="259.5" y="86.0669">)</text></g><!--link backend to backend--><g id="link_backend_backend"><path d="M117.41,144.86 C136.38,144.38 152,149.24 152,159.44 C152,169.64 144.3775,174.6981 125.4075,174.2281 " fill="none" id="backend-to-backend" style="stroke:#181818;stroke-width:1.0;"/><polygon fill="#181818" points="117.41,174.03,125.3332,177.2272,125.4819,171.2291,117.41,174.03" style="stroke:#181818;stroke-width:1.0;"/><text fill="#000000" font-family="sans-serif" font-size="13" lengthAdjust="spacing" textLength="81" x="162" y="164.0069">HTTP Client (</text><text fill="#000000" font-family="sans-serif" font-size="13" font-weight="bold" lengthAdjust="spacing" textLength="58" x="243" y="164.0069">/version</text><text fill="#000000" font-family="sans-serif" font-size="13" lengthAdjust="spacing" textLength="5" x="301" y="164.0069">)</text></g><!--link backend to database--><g id="link_backend_database"><path d="M66.5,199.15 C66.5,222.49 66.5,244.11 66.5,267.41 " fill="none" id="backend-to-database" style="stroke:#181818;stroke-width:1.0;"/><polygon fill="#181818" points="66.5,275.41,69.5,267.41,63.5,267.41,66.5,275.41" style="stroke:#181818;stroke-width:1.0;"/><text fill="#000000" font-family="sans-serif" font-size="13" lengthAdjust="spacing" textLength="81" x="71.5" y="241.9569">HTTP Client (</text><text fill="#000000" font-family="sans-serif" font-size="13" font-weight="bold" lengthAdjust="spacing" textLength="78" x="152.5" y="241.9569">/command</text><text fill="#000000" font-family="sans-serif" font-size="13" lengthAdjust="spacing" textLength="5" x="230.5" y="241.9569">)</text></g><!--SRC=[ROu_2y8m44Vt-nH79nrAS9MGmJ_WADXD72x9IODjKjBGpsziQwPk3txt7kTyulWcmyZU3i7vX4-uhWWl01yieoRpoNkUuBGW_3PBYJIDZ0NomMNb-Q94fQnhfKheY1NUckQE3uuJHzn9hGGDJam7qJ9rgPL2gtq5Vs7RFdUEStosSsPqmMzvvRrDqOI-9syNyGi0]--></g></svg>