<?xml version="1.0" encoding="us-ascii" standalone="no"?><svg xmlns="http://www.w3.org/2000/svg" xmlns:xlink="http://www.w3.org/1999/xlink" contentStyleType="text/css" height="370px" preserveAspectRatio="none" style="width:454px;height:370px;background:#FFFFFF;" version="1.1" viewBox="0 0 454 370" width="454px" zoomAndPan="magnify"><defs/><g><!--entity src--><g id="elem_src"><path d="M6,302.19 C6,292.19 26.5,292.19 26.5,292.19 C26.5,292.19 47,292.19 47,302.19 L47,327.4869 C47,337.4869 26.5,337.4869 26.5,337.4869 C26.5,337.4869 6,337.4869 6,327.4869 L6,302.19 " fill="#F1F1F1" style="stroke:#181818;stroke-width:1.0;stroke-dasharray:7.0,7.0;"/><path d="M6,302.19 C6,312.19 26.5,312.19 26.5,312.19 C26.5,312.19 47,312.19 47,302.19 " fill="none" style="stroke:#181818;stroke-width:1.0;stroke-dasharray:7.0,7.0;"/><text fill="#000000" font-family="sans-serif" font-size="14" lengthAdjust="spacing" textLength="21" x="16" y="329.1851">DB</text></g><!--entity endpoint--><g id="elem_endpoint"><ellipse cx="79.5" cy="14" fill="#F1F1F1" rx="8" ry="8" style="stroke:#181818;stroke-width:0.5;"/><text fill="#000000" font-family="sans-serif" font-size="14" lengthAdjust="spacing" textLength="62" x="48.5" y="43.9951">Endpoint</text></g><!--entity backend--><g id="elem_backend"><polygon fill="#F1F1F1" points="29,130,39,120,130,120,130,188.8906,120,198.8906,29,198.8906,29,130" style="stroke:#181818;stroke-width:0.5;"/><line style="stroke:#181818;stroke-width:0.5;" x1="120" x2="130" y1="130" y2="120"/><line style="stroke:#181818;stroke-width:0.5;" x1="29" x2="120" y1="130" y2="130"/><line style="stroke:#181818;stroke-width:0.5;" x1="120" x2="120" y1="130" y2="198.8906"/><text fill="#000000" font-family="sans-serif" font-size="14" lengthAdjust="spacing" textLength="4" x="44" y="152.9951">&#160;</text><text fill="#000000" font-family="sans-serif" font-size="14" lengthAdjust="spacing" textLength="61" x="44" y="169.292">Backend</text><text fill="#000000" font-family="sans-serif" font-size="14" lengthAdjust="spacing" textLength="4" x="44" y="185.5889">&#160;</text></g><!--entity database--><g id="elem_database"><path d="M90.5,285.89 C90.5,275.89 133.5,275.89 133.5,275.89 C133.5,275.89 176.5,275.89 176.5,285.89 L176.5,343.7806 C176.5,353.7806 133.5,353.7806 133.5,353.7806 C133.5,353.7806 90.5,353.7806 90.5,343.7806 L90.5,285.89 " fill="#F1F1F1" style="stroke:#181818;stroke-width:0.5;"/><path d="M90.5,285.89 C90.5,295.89 133.5,295.89 133.5,295.89 C133.5,295.89 176.5,295.89 176.5,285.89 " fill="none" style="stroke:#181818;stroke-width:0.5;"/><text fill="#000000" font-family="sans-serif" font-size="14" lengthAdjust="spacing" textLength="4" x="100.5" y="312.8851">&#160;</text><text fill="#000000" font-family="sans-serif" font-size="14" lengthAdjust="spacing" textLength="66" x="100.5" y="329.182">Database</text><text fill="#000000" font-family="sans-serif" font-size="14" lengthAdjust="spacing" textLength="4" x="100.5" y="345.4789">&#160;</text></g><!--link endpoint to backend--><g id="link_endpoint_backend"><path d="M79.5,30.71 C79.5,48.63 79.5,78.11 79.5,111.51 " fill="none" id="endpoint-backend" style="stroke:#181818;stroke-width:1.0;"/><polygon fill="#181818" points="79.5,22.71,76.5,30.71,82.5,30.71,79.5,22.71" style="stroke:#181818;stroke-width:1.0;"/><polygon fill="#181818" points="79.5,119.51,82.5,111.51,76.5,111.51,79.5,119.51" style="stroke:#181818;stroke-width:1.0;"/><text fill="#000000" font-family="sans-serif" font-size="13" lengthAdjust="spacing" textLength="87" x="84.5" y="86.0669">HTTP Server (</text><text fill="#000000" font-family="sans-serif" font-size="13" font-weight="bold" lengthAdjust="spacing" textLength="101" x="171.5" y="86.0669">/api/v1/ingest</text><text fill="#000000" font-family="sans-serif" font-size="13" lengthAdjust="spacing" textLength="5" x="272.5" y="86.0669">)</text></g><!--link backend to src--><g id="link_backend_src"><path d="M40.34,199.19 C33.44,208.23 27.27,218.33 23.5,228.89 C16.21,249.32 16.8936,266.4211 19.9836,283.9811 " fill="none" id="backend-to-src" style="stroke:#181818;stroke-width:1.0;"/><polygon fill="#181818" points="21.37,291.86,22.9382,283.4611,17.029,284.501,21.37,291.86" style="stroke:#181818;stroke-width:1.0;"/><text fill="#000000" font-family="sans-serif" font-size="13" lengthAdjust="spacing" textLength="61" x="28.5" y="241.9569">HTTP / S3</text></g><!--link backend to backend--><g id="link_backend_backend"><path d="M130.41,144.86 C149.38,144.38 165,149.24 165,159.44 C165,169.64 157.3775,174.6981 138.4075,174.2281 " fill="none" id="backend-to-backend" style="stroke:#181818;stroke-width:1.0;"/><polygon fill="#181818" points="130.41,174.03,138.3332,177.2272,138.4819,171.2291,130.41,174.03" style="stroke:#181818;stroke-width:1.0;"/><text fill="#000000" font-family="sans-serif" font-size="13" lengthAdjust="spacing" textLength="98" x="225" y="156.5069">JSON Schema (</text><text fill="#000000" font-family="sans-serif" font-size="13" font-weight="bold" lengthAdjust="spacing" textLength="59" x="323" y="156.5069">validate</text><text fill="#000000" font-family="sans-serif" font-size="13" lengthAdjust="spacing" textLength="5" x="382" y="156.5069">)</text><text fill="#000000" font-family="sans-serif" font-size="13" lengthAdjust="spacing" textLength="188" x="175" y="171.6397">Protocol, Format, Normalize (</text><text fill="#000000" font-family="sans-serif" font-size="13" font-weight="bold" lengthAdjust="spacing" textLength="73" x="363" y="171.6397">transform</text><text fill="#000000" font-family="sans-serif" font-size="13" lengthAdjust="spacing" textLength="5" x="436" y="171.6397">)</text></g><!--link backend to database--><g id="link_backend_database"><path d="M93.13,199.15 C101.34,222.49 109.1142,244.5637 117.3142,267.8637 " fill="none" id="backend-to-database" style="stroke:#181818;stroke-width:1.0;"/><polygon fill="#181818" points="119.97,275.41,120.1441,266.8678,114.4843,268.8596,119.97,275.41" style="stroke:#181818;stroke-width:1.0;"/><text fill="#000000" font-family="sans-serif" font-size="13" lengthAdjust="spacing" textLength="81" x="112.5" y="241.9569">HTTP Client (</text><text fill="#000000" font-family="sans-serif" font-size="13" font-weight="bold" lengthAdjust="spacing" textLength="78" x="193.5" y="241.9569">/command</text><text fill="#000000" font-family="sans-serif" font-size="13" lengthAdjust="spacing" textLength="5" x="271.5" y="241.9569">)</text></g><!--link database to database--><g id="link_database_database"><path d="M176.81,300.49 C195.5,299.31 211.5,304.1 211.5,314.83 C211.5,325.57 203.4841,330.8641 184.7941,329.6841 " fill="none" id="database-to-database" style="stroke:#181818;stroke-width:1.0;"/><polygon fill="#181818" points="176.81,329.18,184.6051,332.6781,184.9831,326.69,176.81,329.18" style="stroke:#181818;stroke-width:1.0;"/><text fill="#000000" font-family="sans-serif" font-size="13" lengthAdjust="spacing" textLength="80" x="221.5" y="319.3969">Interconnect</text></g><!--SRC=[PL2nJiCm5Dpz5K_k0b9R2x51bA4K10obKhf1XnVxbLeapvLjPU3hSKngKJ7vx7jtxyu68xOO28BNW07aUYLXrbccfS5m97ClXEL8_e2QWDYSNBh2ktYSeDWBmSuGjAY_4fyeiVg5OkJCUK41QM0zuJnHJAjgiQZhOdG74fvtkoqqv0VoS5MrjSAJLSEDiln98LQghQ-b46T5bez5YbH1Soil-R_shytR1Xfzf1wp_O2TJJaf6yC7mzQxwBJhvl3aV8zn3flnxEmtPK7qoE6GdgOe5vjAunBdeREKYkOcslKzifc4PVQ_ycNyVksOIKVv0m00]--></g></svg>