<?xml version="1.0" encoding="us-ascii" standalone="no"?><svg xmlns="http://www.w3.org/2000/svg" xmlns:xlink="http://www.w3.org/1999/xlink" contentStyleType="text/css" height="499px" preserveAspectRatio="none" style="width:250px;height:499px;background:#FFFFFF;" version="1.1" viewBox="0 0 250 499" width="250px" zoomAndPan="magnify"><defs/><g><!--cluster ctr_db--><g id="cluster_ctr_db"><rect fill="none" height="112.3" rx="2.5" ry="2.5" style="stroke:#181818;stroke-width:1.0;" width="156" x="7" y="7"/><line style="stroke:#181818;stroke-width:1.0;" x1="7" x2="163" y1="27.2969" y2="27.2969"/><text fill="#000000" font-family="sans-serif" font-size="14" font-weight="bold" lengthAdjust="spacing" textLength="115" x="27.5" y="21.9951">CTR: Database</text></g><!--cluster ctr_be--><g id="cluster_ctr_be"><rect fill="none" height="103.29" rx="2.5" ry="2.5" style="stroke:#181818;stroke-width:1.0;" width="146" x="17" y="159.3"/><line style="stroke:#181818;stroke-width:1.0;" x1="17" x2="163" y1="179.5969" y2="179.5969"/><text fill="#000000" font-family="sans-serif" font-size="14" font-weight="bold" lengthAdjust="spacing" textLength="109" x="35.5" y="174.2951">CTR: Backend</text></g><!--cluster ctr_fe--><g id="cluster_ctr_fe"><rect fill="none" height="113.3" rx="2.5" ry="2.5" style="stroke:#181818;stroke-width:1.0;stroke-dasharray:1.0,3.0;" width="163" x="53" y="380.59"/><line style="stroke:#181818;stroke-width:1.0;stroke-dasharray:1.0,3.0;" x1="53" x2="216" y1="400.8869" y2="400.8869"/><text fill="#000000" font-family="sans-serif" font-size="14" font-weight="bold" lengthAdjust="spacing" textLength="114" x="77.5" y="395.5851">CTR: Frontend</text></g><!--entity db--><g id="elem_db"><path d="M30.5,60 C30.5,50 75,50 75,50 C75,50 119.5,50 119.5,60 L119.5,85.2969 C119.5,95.2969 75,95.2969 75,95.2969 C75,95.2969 30.5,95.2969 30.5,85.2969 L30.5,60 " fill="#F1F1F1" style="stroke:#181818;stroke-width:0.5;"/><path d="M30.5,60 C30.5,70 75,70 75,70 C75,70 119.5,70 119.5,60 " fill="none" style="stroke:#181818;stroke-width:0.5;"/><text fill="#000000" font-family="sans-serif" font-size="14" lengthAdjust="spacing" textLength="69" x="40.5" y="86.9951">ArcadeDB</text></g><!--entity be--><g id="elem_be"><rect fill="#F1F1F1" height="36.2969" rx="2.5" ry="2.5" style="stroke:#181818;stroke-width:0.5;" width="79" x="40.5" y="202.3"/><text fill="#000000" font-family="sans-serif" font-size="14" lengthAdjust="spacing" textLength="59" x="50.5" y="225.2951">Benthos</text></g><!--entity fe--><g id="elem_fe"><rect fill="#F1F1F1" height="46.2969" rx="2.5" ry="2.5" style="stroke:#181818;stroke-width:1.0;stroke-dasharray:1.0,3.0;" width="96" x="77" y="423.59"/><path d="M109,423.59 L109,428.59 L102,435.59 L77,435.59 " fill="none" style="stroke:#181818;stroke-width:1.0;stroke-dasharray:1.0,3.0;"/><text fill="#000000" font-family="sans-serif" font-size="14" lengthAdjust="spacing" textLength="56" x="92" y="456.5851">Lowdefy</text></g><!--entity src--><g id="elem_src"><path d="M89.5,314.94 C89.5,304.94 110,304.94 110,304.94 C110,304.94 130.5,304.94 130.5,314.94 L130.5,340.2369 C130.5,350.2369 110,350.2369 110,350.2369 C110,350.2369 89.5,350.2369 89.5,340.2369 L89.5,314.94 " fill="#F1F1F1" style="stroke:#181818;stroke-width:1.0;stroke-dasharray:7.0,7.0;"/><path d="M89.5,314.94 C89.5,324.94 110,324.94 110,324.94 C110,324.94 130.5,324.94 130.5,314.94 " fill="none" style="stroke:#181818;stroke-width:1.0;stroke-dasharray:7.0,7.0;"/><text fill="#000000" font-family="sans-serif" font-size="14" lengthAdjust="spacing" textLength="21" x="99.5" y="341.9351">DB</text></g><!--entity http--><g id="elem_http"><ellipse cx="208" cy="327.59" fill="#F1F1F1" rx="8" ry="8" style="stroke:#181818;stroke-width:0.5;"/><text fill="#000000" font-family="sans-serif" font-size="14" lengthAdjust="spacing" textLength="70" x="173" y="357.5851">Endpoints</text></g><!--link ctr_be to src--><g id="link_ctr_be_src"><path d="M141.3108,262.8244 C141.2367,263.0226 141.1624,263.2208 141.0879,263.419 C140.939,263.8154 140.7894,264.2118 140.6392,264.6081 C140.0382,266.1934 139.4269,267.7771 138.8071,269.3501 C137.5675,272.4963 136.2938,275.6 135,278.59 C131.27,287.22 130.3928,289.3648 126.1328,297.3848 " fill="none" id="ctr_be-to-src" style="stroke:#181818;stroke-width:1.0;stroke-dasharray:7.0,7.0;"/><polygon fill="#181818" points="122.38,304.45,128.7822,298.7922,123.4834,295.9775,122.38,304.45" style="stroke:#181818;stroke-width:1.0;"/></g><!--link ctr_db to ctr_be--><g id="link_ctr_db_ctr_be"><path d="M155,127.8209 C155,136.1336 155,137.7416 155,146.5713 C155,148.7787 155,150.9861 155,153.1853 C155,154.2849 155,155.3825 155,156.4771 C155,157.0244 155,157.5709 155,158.1165 C155,158.3893 155,150.6619 155,150.9343 " fill="none" id="ctr_db-ctr_be" style="stroke:#181818;stroke-width:1.0;"/><polygon fill="#181818" points="155,119.8209,152,127.8209,158,127.8209,155,119.8209" style="stroke:#181818;stroke-width:1.0;"/><polygon fill="#181818" points="155,158.9343,158,150.9343,152,150.9343,155,158.9343" style="stroke:#181818;stroke-width:1.0;"/></g><!--link ctr_be to http--><g id="link_ctr_be_http"><path d="M166.6419,244.5445 C167.7152,246.6741 166.8121,244.8819 167.9981,247.235 C170.3701,251.9412 172.9391,257.0381 175.5913,262.3 C186.2,283.3475 194.5395,299.891 200.5295,311.776 " fill="none" id="ctr_be-http" style="stroke:#181818;stroke-width:1.0;"/><polygon fill="#181818" points="163.0414,237.4005,163.9629,245.8947,169.3209,243.1943,163.0414,237.4005" style="stroke:#181818;stroke-width:1.0;"/><polygon fill="#181818" points="204.13,318.92,203.2085,310.4258,197.8505,313.1262,204.13,318.92" style="stroke:#181818;stroke-width:1.0;"/></g><!--link http to ctr_fe--><g id="link_http_ctr_fe"><path d="M208,344.28 C208,350.6925 208,352.5781 208,363.8391 C208,366.6543 208,369.5555 208,372.5099 C208,373.987 208,375.4775 208,376.9772 C208,377.727 208,378.4792 208,379.2331 C208,379.6101 208,371.9875 208,372.3653 " fill="none" id="http-ctr_fe" style="stroke:#181818;stroke-width:1.0;stroke-dasharray:1.0,3.0;"/><polygon fill="#181818" points="208,336.28,205,344.28,211,344.28,208,336.28" style="stroke:#181818;stroke-width:1.0;"/><polygon fill="#181818" points="208,380.3653,211,372.3653,205,372.3653,208,380.3653" style="stroke:#181818;stroke-width:1.0;"/></g><!--SRC=[NP3D2i8m383lVOemp_C1L0JdpycJU1EHhCdSSBRI1aJ4TxUs7OezbUJBbnz2mHezWtSQq4EngWeOzPtXCQ5lcQPAQNG4Mjo9weWizxi9h79X0Ky5uT4Woj32QIGEDlNwCTJyDLIeBsne4E2PZK06gl1lhK_5dTCzGojoYxcrePljZ8JiLzpyY3VE6edcl8WL2OlaFet3AqFcj_PEt3p-oDWrJLiUqXcEvNmURwJo8MQpyXDAs43du6TK5USDWKEI7WUwuJS0]--></g></svg>