<?xml version="1.0" encoding="us-ascii" standalone="no"?><svg xmlns="http://www.w3.org/2000/svg" xmlns:xlink="http://www.w3.org/1999/xlink" contentStyleType="text/css" height="405px" preserveAspectRatio="none" style="width:124px;height:405px;background:#FFFFFF;" version="1.1" viewBox="0 0 124 405" width="124px" zoomAndPan="magnify"><defs/><g><!--entity src--><g id="elem_src"><path d="M42,16 C42,6 62.5,6 62.5,6 C62.5,6 83,6 83,16 L83,41.2969 C83,51.2969 62.5,51.2969 62.5,51.2969 C62.5,51.2969 42,51.2969 42,41.2969 L42,16 " fill="#F1F1F1" style="stroke:#181818;stroke-width:1.0;stroke-dasharray:7.0,7.0;"/><path d="M42,16 C42,26 62.5,26 62.5,26 C62.5,26 83,26 83,16 " fill="none" style="stroke:#181818;stroke-width:1.0;stroke-dasharray:7.0,7.0;"/><text fill="#000000" font-family="sans-serif" font-size="14" lengthAdjust="spacing" textLength="21" x="52" y="42.9951">DB</text></g><!--entity dataasee--><g id="elem_dataasee"><rect fill="#F1F1F1" height="54.8906" rx="2.5" ry="2.5" style="stroke:#181818;stroke-width:0.5;" width="111" x="7" y="111.3"/><text fill="#000000" font-family="sans-serif" font-size="14" lengthAdjust="spacing" textLength="4" x="17" y="127.2951">&#160;</text><text fill="#000000" font-family="sans-serif" font-size="14" lengthAdjust="spacing" textLength="67" x="33" y="143.592">DatAasee</text><text fill="#000000" font-family="sans-serif" font-size="14" lengthAdjust="spacing" textLength="4" x="17" y="159.8889">&#160;</text></g><!--entity http--><g id="elem_http"><ellipse cx="62.5" cy="255.19" fill="#F1F1F1" rx="8" ry="8" style="stroke:#181818;stroke-width:0.5;"/><text fill="#000000" font-family="sans-serif" font-size="14" lengthAdjust="spacing" textLength="70" x="27.5" y="285.1851">Endpoints</text></g><!--entity fe--><g id="elem_fe"><rect fill="#F1F1F1" height="54.8906" rx="2.5" ry="2.5" style="stroke:#181818;stroke-width:1.0;stroke-dasharray:7.0,7.0;" width="107" x="9" y="344.19"/><text fill="#000000" font-family="sans-serif" font-size="14" lengthAdjust="spacing" textLength="4" x="19" y="360.1851">&#160;</text><text fill="#000000" font-family="sans-serif" font-size="14" lengthAdjust="spacing" textLength="63" x="35" y="376.482">Frontend</text><text fill="#000000" font-family="sans-serif" font-size="14" lengthAdjust="spacing" textLength="4" x="19" y="392.7789">&#160;</text></g><!--reverse link src to dataasee--><g id="link_src_dataasee"><path d="M62.5,59.79 C62.5,76.96 62.5,92.82 62.5,111.05 " fill="none" id="src-backto-dataasee" style="stroke:#181818;stroke-width:1.0;stroke-dasharray:7.0,7.0;"/><polygon fill="#181818" points="62.5,51.79,59.5,59.79,65.5,59.79,62.5,51.79" style="stroke:#181818;stroke-width:1.0;"/></g><!--link dataasee to http--><g id="link_dataasee_http"><path d="M62.5,174.58 C62.5,200.47 62.5,222.07 62.5,238.28 " fill="none" id="dataasee-http" style="stroke:#181818;stroke-width:1.0;"/><polygon fill="#181818" points="62.5,166.58,59.5,174.58,65.5,174.58,62.5,166.58" style="stroke:#181818;stroke-width:1.0;"/><polygon fill="#181818" points="62.5,246.28,65.5,238.28,59.5,238.28,62.5,246.28" style="stroke:#181818;stroke-width:1.0;"/></g><!--reverse link http to fe--><g id="link_http_fe"><path d="M62.5,272.06 C62.5,288.22 62.5,317.81 62.5,343.73 " fill="none" id="http-backto-fe" style="stroke:#181818;stroke-width:1.0;stroke-dasharray:7.0,7.0;"/><polygon fill="#181818" points="62.5,264.06,59.5,272.06,65.5,272.06,62.5,264.06" style="stroke:#181818;stroke-width:1.0;"/></g><!--SRC=[LOx12eCm38RlUOhGdRiNc0WRRYyX7cAJeZ2gD7r_p3eLp2t9b-yFKw6HL51pG59qtSlXxJidkJFf9Fm029GPsK3Z17i0jEgeF6kF00F0d8haI45mAcMjfdVYTR6vkbqHvMe-L9-ys7NYNVNxf6by_wS6VqR3-OEjVTlMAAXv5pxA1W00]--></g></svg>